<svg width="444" height="431" xmlns:xlink="http://www.w3.org/1999/xlink" xmlns="http://www.w3.org/2000/svg"><defs><clipPath id="c"><use xlink:href="#a"/></clipPath><clipPath id="d"><use xlink:href="#b"/></clipPath><path d="M20 0 0 20v410.321h421.362L444 407.682 20 0Z" id="a"/><path d="M0 443.243V.003h2102.16v443.24H0Z" id="b"/></defs><path d="M20 0 0 20v410.321h421.362L444 407.682 20 0Z" fill="#DC4DFF" fill-rule="evenodd"/><path d="M20 0 0 20v410.321h421.362L444 407.682 20 0Z" fill="#DC4DFF" fill-rule="evenodd"/><g clip-path="url(#c)"><path d="M-782.922 438.985V-4.255H1319.24v443.24H-782.92Z" fill="none"/><g clip-path="url(#d)" fill-rule="evenodd" transform="translate(-782.92 -4.258)"><path d="m791.164 8.184-2.495-3.978-2.1-4.204C778.168 4.2 449.982 335.261 349.598 436.625l6.684 6.618C501.85 296.252 780.073 16.156 791.164 8.184M820.296 8.184l-2.495-3.978-2.104-4.204C807.299 4.2 479.119 335.261 378.736 436.625l6.684 6.618C530.986 296.252 809.208 16.156 820.296 8.184M849.424 8.184l-2.495-3.978-2.104-4.204C836.428 4.2 508.253 335.261 407.868 436.625l6.683 6.618C560.116 296.252 838.337 16.156 849.424 8.184M878.563 8.184l-2.496-3.978-2.103-4.204C865.566 4.2 537.386 335.261 437.003 436.625l6.683 6.618C589.253 296.252 867.475 16.156 878.563 8.184M907.694 8.184l-2.492-3.978-2.106-4.204C894.698 4.2 566.512 335.261 466.131 436.625l6.68 6.618C618.383 296.252 896.61 16.156 907.694 8.184M936.823 8.184l-2.492-3.978-2.104-4.204c-8.398 4.198-336.576 335.259-436.96 436.623l6.686 6.618C647.518 296.252 925.735 16.156 936.823 8.184M965.961 8.184l-2.495-3.978-2.103-4.204C952.965 4.2 624.785 335.261 524.402 436.625l6.683 6.618C676.652 296.252 954.874 16.156 965.961 8.184M995.099 8.184l-2.495-3.978-2.1-4.204C982.103 4.2 653.917 335.261 553.533 436.625l6.684 6.618C705.785 296.252 984.009 16.156 995.099 8.184M1024.22 8.184l-2.49-3.978-2.11-4.204c-8.4 4.198-336.576 335.259-436.959 436.623l6.684 6.618C734.911 296.252 1013.13 16.156 1024.22 8.184M1053.36 8.184l-2.5-3.978-2.1-4.204c-8.4 4.198-336.578 335.259-436.961 436.623l6.683 6.618C764.049 296.252 1042.27 16.156 1053.36 8.184M1082.5 8.184l-2.5-3.978-2.1-4.204c-8.4 4.198-336.584 335.259-436.968 436.623l6.683 6.618C793.183 296.252 1071.41 16.156 1082.5 8.184M1111.63 8.184l-2.5-3.978-2.1-4.204c-8.4 4.198-336.581 335.259-436.964 436.623l6.683 6.618C822.316 296.252 1100.54 16.156 1111.63 8.184M1140.76 8.184l-2.49-3.978-2.1-4.204c-8.4 4.198-336.589 335.259-436.972 436.623l6.683 6.618C851.449 296.252 1129.67 16.156 1140.76 8.184M1169.9 8.184l-2.5-3.978-2.1-4.204c-8.4 4.198-336.581 335.259-436.964 436.623l6.683 6.618C880.586 296.252 1158.81 16.156 1169.9 8.184M1199.02 8.184l-2.49-3.978-2.1-4.204c-8.4 4.198-336.577 335.259-436.962 436.623l6.683 6.618C909.716 296.252 1187.94 16.156 1199.02 8.184M1228.16 8.184l-2.49-3.978-2.11-4.204c-8.39 4.198-336.575 335.259-436.958 436.623l6.684 6.618C938.853 296.252 1217.07 16.156 1228.16 8.184M1257.29 8.184l-2.49-3.978-2.1-4.204c-8.4 4.198-336.583 335.259-436.966 436.623l6.683 6.618C967.984 296.252 1246.21 16.156 1257.29 8.184M1286.42 8.184l-2.49-3.978-2.1-4.204c-8.4 4.198-336.583 335.259-436.964 436.623l6.683 6.618C997.114 296.252 1275.33 16.156 1286.42 8.184M1315.56 8.184l-2.49-3.978-2.11-4.204c-8.4 4.198-336.576 335.259-436.959 436.623l6.683 6.618C1026.25 296.252 1304.47 16.156 1315.56 8.184M1344.7 8.184l-2.5-3.978-2.1-4.204c-8.4 4.198-336.58 335.259-436.967 436.623l6.683 6.618C1055.38 296.252 1333.61 16.156 1344.7 8.184M1373.83 8.184l-2.5-3.978-2.1-4.204c-8.4 4.198-336.58 335.259-436.969 436.623l6.683 6.618C1084.51 296.252 1362.74 16.156 1373.83 8.184M1402.96 8.184l-2.5-3.978-2.1-4.204c-8.4 4.198-336.58 335.259-436.968 436.623l6.684 6.618C1113.64 296.252 1391.87 16.156 1402.96 8.184M1432.1 8.184l-2.5-3.978-2.1-4.204c-8.4 4.198-336.58 335.259-436.963 436.623l6.684 6.618C1142.79 296.252 1421.01 16.156 1432.1 8.184M1461.22 8.184l-2.49-3.978-2.1-4.204c-8.4 4.198-336.58 335.259-436.96 436.623l6.68 6.618c145.57-146.991 423.79-427.087 434.87-435.059M1490.36 8.184l-2.5-3.978-2.1-4.204c-8.4 4.198-336.58 335.259-436.97 436.623l6.68 6.618c145.57-146.991 423.8-427.087 434.89-435.059M1519.49 8.184 1517 4.206l-2.1-4.204c-8.4 4.198-336.58 335.259-436.97 436.623l6.69 6.618c145.57-146.991 423.79-427.087 434.87-435.059M1548.62 8.184l-2.49-3.978-2.1-4.204c-8.4 4.198-336.58 335.259-436.96 436.623l6.68 6.618c145.57-146.991 423.78-427.087 434.87-435.059M1577.76 8.184l-2.5-3.978-2.1-4.204c-8.4 4.198-336.58 335.259-436.96 436.623l6.68 6.618c145.57-146.991 423.79-427.087 434.88-435.059M1606.89 8.184l-2.49-3.978-2.11-4.204c-8.39 4.198-336.57 335.259-436.96 436.623l6.69 6.618c145.56-146.991 423.79-427.087 434.87-435.059M1636.02 8.184l-2.49-3.978-2.1-4.204c-8.4 4.198-336.58 335.259-436.96 436.623l6.68 6.618c145.56-146.991 423.78-427.087 434.87-435.059M1665.16 8.184l-2.5-3.978-2.1-4.204c-8.4 4.198-336.58 335.259-436.96 436.623l6.68 6.618c145.57-146.991 423.79-427.087 434.88-435.059" fill="#103A77"/><path d="m750.488 26.782 96.54-68.905-15.376 429.19-21.927 17.823-36.412 38.303-22.825-416.411Z" fill="#2CA0FF"/><g fill="#103A77"><path d="m791.165 8.184-2.496-3.978-2.1-4.204c-8.401 4.198-336.586 335.259-436.97 436.623l6.683 6.618C501.85 296.253 780.074 16.156 791.165 8.184M820.296 8.184l-2.495-3.978-2.104-4.204C807.299 4.2 479.119 335.261 378.736 436.625l6.683 6.618C530.986 296.253 809.208 16.156 820.296 8.184M849.425 8.184l-2.495-3.978-2.103-4.204C836.429 4.2 508.254 335.261 407.87 436.625l6.683 6.618C560.117 296.253 838.338 16.156 849.425 8.184M878.563 8.184l-2.496-3.978-2.103-4.204C865.566 4.2 537.386 335.261 437.003 436.625l6.683 6.618C589.253 296.253 867.475 16.156 878.563 8.184M907.695 8.184l-2.492-3.978-2.106-4.204C894.699 4.2 566.514 335.261 466.132 436.625l6.68 6.618C618.385 296.253 896.611 16.156 907.695 8.184M936.823 8.184l-2.492-3.978-2.104-4.204c-8.398 4.198-336.576 335.259-436.96 436.623l6.686 6.618C647.518 296.253 925.735 16.156 936.823 8.184M965.962 8.184l-2.496-3.978-2.103-4.204C952.965 4.2 624.785 335.261 524.402 436.625l6.683 6.618C676.652 296.253 954.874 16.156 965.962 8.184M995.099 8.184l-2.495-3.978-2.1-4.204C982.103 4.2 653.917 335.261 553.533 436.625l6.684 6.618C705.785 296.253 984.009 16.156 995.099 8.184M1024.23 8.184l-2.49-3.978-2.11-4.204c-8.4 4.198-336.576 335.259-436.959 436.623l6.683 6.618C734.921 296.253 1013.14 16.156 1024.23 8.184M1053.36 8.184l-2.5-3.978-2.1-4.204c-8.4 4.198-336.578 335.259-436.961 436.623l6.683 6.618C764.049 296.253 1042.27 16.156 1053.36 8.184M1082.5 8.184l-2.5-3.978-2.1-4.204c-8.4 4.198-336.585 335.259-436.969 436.623l6.683 6.618c41.456-41.862 93.672-94.52 147.412-148.611C929.987 158.786 1074.56 13.885 1082.5 8.184M1111.63 8.184l-2.5-3.978-2.1-4.204c-8.4 4.198-336.581 335.259-436.964 436.623l6.683 6.618C822.316 296.253 1100.54 16.156 1111.63 8.184M1140.76 8.184l-2.49-3.978-2.1-4.204c-8.4 4.198-336.589 335.259-436.973 436.623l6.684 6.618C851.448 296.253 1129.67 16.156 1140.76 8.184M1169.9 8.184l-2.5-3.978-2.1-4.204c-8.4 4.198-336.58 335.259-436.963 436.623l6.683 6.618C880.587 296.253 1158.81 16.156 1169.9 8.184M1199.02 8.184l-2.49-3.978-2.11-4.204c-8.39 4.198-336.568 335.259-436.953 436.623l6.683 6.618c145.565-146.99 423.79-427.087 434.87-435.059M1228.16 8.184l-2.49-3.978-2.11-4.204c-8.39 4.198-336.575 335.259-436.958 436.623l6.684 6.618C938.853 296.253 1217.07 16.156 1228.16 8.184M1257.29 8.184l-2.49-3.978-2.11-4.204C1244.3 4.2 916.117 335.261 815.734 436.625l6.683 6.618C967.984 296.253 1246.21 16.156 1257.29 8.184M1286.42 8.184l-2.49-3.978-2.1-4.204c-8.4 4.198-336.581 335.259-436.963 436.623l6.683 6.618c145.565-146.99 423.78-427.087 434.87-435.059M1315.56 8.184l-2.49-3.978-2.11-4.204c-8.4 4.198-336.576 335.259-436.959 436.623l6.683 6.618C1026.25 296.253 1304.47 16.156 1315.56 8.184M1344.7 8.184l-2.5-3.978-2.1-4.204c-8.4 4.198-336.58 335.259-436.967 436.623l6.683 6.618C1055.38 296.253 1333.61 16.156 1344.7 8.184M1373.83 8.184l-2.5-3.978-2.1-4.204c-8.4 4.198-336.58 335.259-436.96 436.623l6.684 6.618C1084.52 296.253 1362.74 16.156 1373.83 8.184M1402.96 8.184l-2.5-3.978-2.1-4.204c-8.4 4.198-336.58 335.259-436.966 436.623l6.683 6.618C1113.65 296.253 1391.87 16.156 1402.96 8.184M1432.1 8.184l-2.5-3.978-2.1-4.204c-8.4 4.198-336.58 335.259-436.963 436.623l6.683 6.618c145.57-146.99 423.79-427.087 434.88-435.059M1461.22 8.184l-2.49-3.978-2.1-4.204c-8.4 4.198-336.58 335.259-436.96 436.623l6.68 6.618c145.57-146.99 423.79-427.087 434.87-435.059M1490.36 8.184l-2.5-3.978-2.1-4.204c-8.4 4.198-336.58 335.259-436.97 436.623l6.68 6.618c145.57-146.99 423.8-427.087 434.89-435.059M1519.5 8.184l-2.5-3.978-2.1-4.204c-8.4 4.198-336.58 335.259-436.96 436.623l6.68 6.618c145.57-146.99 423.79-427.087 434.88-435.059M1548.62 8.184l-2.49-3.978-2.1-4.204c-8.4 4.198-336.58 335.259-436.96 436.623l6.68 6.618c145.57-146.99 423.78-427.087 434.87-435.059M1577.75 8.184l-2.49-3.978-2.1-4.204c-8.4 4.198-336.58 335.259-436.96 436.623l6.68 6.618c145.57-146.99 423.79-427.087 434.87-435.059M1606.89 8.184l-2.49-3.978-2.11-4.204c-8.39 4.198-336.57 335.259-436.96 436.623l6.69 6.618c145.56-146.99 423.79-427.087 434.87-435.059M1636.02 8.184l-2.49-3.978-2.1-4.204c-8.41 4.198-336.58 335.259-436.97 436.623l6.69 6.618c145.56-146.99 423.78-427.087 434.87-435.059M1665.16 8.184l-2.5-3.978-2.1-4.204c-8.4 4.198-336.58 335.259-436.96 436.623l6.68 6.618c145.57-146.99 423.79-427.087 434.88-435.059"/></g></g></g></svg>