<svg width="133" height="107" fill="none" xmlns="http://www.w3.org/2000/svg"><g opacity=".1"><mask id="a" style="mask-type:alpha" maskUnits="userSpaceOnUse" x="0" y="0" width="91" height="107"><path fill-rule="evenodd" clip-rule="evenodd" d="M.466 106.86V.087h89.907V106.86H.466Z" fill="#071733"/></mask><g mask="url(#a)" fill-rule="evenodd" clip-rule="evenodd" fill="#071733"><path d="M60.302 23.704H8.21a7.44 7.44 0 0 0-7.442 7.441v7.442a7.44 7.44 0 0 0 7.442 7.441v52.09a7.445 7.445 0 0 0 7.441 7.442h59.533a7.445 7.445 0 0 0 7.441-7.442v-52.09a7.44 7.44 0 0 0 7.442-7.441v-7.442a7.44 7.44 0 0 0-7.442-7.441H60.301Z"/><path d="M22.712 23.693a7.442 7.442 0 0 1-7.059-7.428 7.443 7.443 0 0 1 7.442-7.44 7.443 7.443 0 0 1 7.43 7.057l.011.383v7.439h29.766v-7.44l.01-.382a7.443 7.443 0 0 1 7.431-7.056 7.443 7.443 0 0 1 7.442 7.439 7.442 7.442 0 0 1-7.059 7.428l-7.824.01H80.3c1.474-2 2.326-4.503 2.326-7.438 0-8.213-6.667-14.878-14.883-14.878-5.503 0-10.314 2.994-12.888 7.439H35.812c-2.508-4.445-7.214-7.44-12.717-7.44-8.216 0-14.883 6.666-14.883 14.879 0 2.815.785 5.337 2.147 7.439H8.212h22.324l-7.824-.011Z"/><path d="M30.539 17.602H60.1v26.942H30.539V17.602ZM33.04 46.647h24.315v58.913H33.04V46.647Z"/></g></g><mask id="b" style="mask-type:alpha" maskUnits="userSpaceOnUse" x="32" y="0" width="91" height="107"><path fill-rule="evenodd" clip-rule="evenodd" d="M32.216 106.86V.087h89.907V106.86H32.216Z" fill="#fff"/></mask><g mask="url(#b)" fill-rule="evenodd" clip-rule="evenodd"><path d="M92.052 23.704H39.96a7.44 7.44 0 0 0-7.441 7.441v7.442a7.44 7.44 0 0 0 7.441 7.441v52.09a7.445 7.445 0 0 0 7.442 7.442h59.532a7.444 7.444 0 0 0 7.441-7.442v-52.09a7.44 7.44 0 0 0 7.442-7.441v-7.442a7.44 7.44 0 0 0-7.442-7.441H92.051Z" fill="#fff"/><path d="M54.462 23.693a7.442 7.442 0 0 1-7.059-7.428 7.443 7.443 0 0 1 7.442-7.44 7.443 7.443 0 0 1 7.43 7.057l.011.383v7.439h29.766v-7.44l.01-.382a7.443 7.443 0 0 1 7.431-7.056 7.443 7.443 0 0 1 7.442 7.439 7.442 7.442 0 0 1-7.059 7.428l-7.824.01h19.999c1.473-2 2.325-4.503 2.325-7.438 0-8.213-6.667-14.878-14.883-14.878-5.503 0-10.314 2.994-12.888 7.439H67.561c-2.507-4.445-7.214-7.44-12.717-7.44-8.216 0-14.883 6.666-14.883 14.879 0 2.815.785 5.337 2.147 7.439h-2.147 22.324l-7.824-.011Z" fill="#2CA0FF"/><path d="M62.289 17.602H91.84v26.942H62.289V17.602ZM64.79 46.647h24.315v58.913H64.79V46.647Z" fill="#2CA0FF"/></g><mask id="c" style="mask-type:alpha" maskUnits="userSpaceOnUse" x="100" y="45" width="33" height="33"><path fill-rule="evenodd" clip-rule="evenodd" d="M100.29 77.504v-31.74h31.75v31.74h-31.75Z" fill="#2CA0FF"/></mask><g mask="url(#c)" fill-rule="evenodd" clip-rule="evenodd"><path d="M100.29 61.634c0-8.765 7.108-15.87 15.875-15.87 8.768 0 15.875 7.105 15.875 15.87 0 8.765-7.107 15.87-15.875 15.87-8.767 0-15.875-7.105-15.875-15.87Z" fill="#103A77"/><path d="M121.355 54.715a2.27 2.27 0 0 0-2.268 2.269 2.27 2.27 0 0 0 2.268 2.269 2.27 2.27 0 0 0 2.268-2.27 2.27 2.27 0 0 0-2.268-2.268ZM110.937 54.715a2.272 2.272 0 0 0-2.269 2.269 2.272 2.272 0 0 0 2.269 2.269 2.272 2.272 0 0 0 2.269-2.27 2.272 2.272 0 0 0-2.269-2.268ZM124.2 67.092c-2.57-2.426-5.356-3.616-8.279-3.53-4.596.138-7.76 3.451-7.894 3.592-.545.58-.517 1.5.063 2.047.558.527 1.519.5 2.046-.056.105-.11 2.589-2.678 6.048-2.678 2.075 0 4.103.92 6.027 2.736a1.444 1.444 0 0 0 2.05-.061c.266-.282.406-.65.395-1.038a1.444 1.444 0 0 0-.456-1.012Z" fill="#fff"/></g></svg>