<svg width="111" height="74" fill="none" xmlns="http://www.w3.org/2000/svg"><g opacity=".2"><path fill-rule="evenodd" clip-rule="evenodd" d="M0 37C0 16.566 16.566 0 37 0c20.435 0 37 16.566 37 37S57.435 74 37 74C16.566 74 0 57.434 0 37Z" fill="#DC4DFF"/><path d="M6.5 37C6.5 20.155 20.156 6.5 37 6.5c16.845 0 30.5 13.655 30.5 30.5S53.845 67.5 37 67.5C20.156 67.5 6.5 53.845 6.5 37Z" stroke="#fff"/></g><g opacity=".4"><path fill-rule="evenodd" clip-rule="evenodd" d="M17 37C17 16.566 33.565 0 54 0c20.434 0 37 16.566 37 37S74.434 74 54 74c-20.435 0-37-16.566-37-37Z" fill="#DC4DFF"/><path d="M23.5 37C23.5 20.155 37.155 6.5 54 6.5c16.844 0 30.5 13.655 30.5 30.5S70.844 67.5 54 67.5c-16.845 0-30.5-13.655-30.5-30.5Z" stroke="#fff"/></g><path fill-rule="evenodd" clip-rule="evenodd" d="M36.998 37c0-20.434 16.566-37 37-37C94.434 0 111 16.566 111 37s-16.566 37-37 37c-20.435 0-37-16.566-37-37Z" fill="#DC4DFF"/><path d="M43.498 37c0-16.845 13.656-30.5 30.5-30.5C90.844 6.5 104.5 20.155 104.5 37s-13.656 30.5-30.5 30.5c-16.845 0-30.5-13.655-30.5-30.5Z" stroke="#fff"/><path d="M56.259 44v-.34l1.326-.408c.861-.295 1.292-.873 1.292-1.734V25.062l-2.754.374v-.442a21.53 21.53 0 0 0 3.842-1.156 23.984 23.984 0 0 0 3.502-1.734l.442.306-.136 4.862v14.246c0 .884.43 1.45 1.292 1.7l1.394.442V44h-10.2Zm18.679-7.854v-.782h1.972a22.59 22.59 0 0 1-.102-2.176c0-.793.045-1.553.136-2.278h-2.006v-.782h2.108c.498-2.743 1.575-4.794 3.23-6.154 1.654-1.36 3.615-2.04 5.882-2.04 1.156 0 2.187.17 3.094.51.929.34 1.654.816 2.176 1.428.544.612.816 1.326.816 2.142 0 .635-.193 1.133-.578 1.496-.363.363-.839.544-1.428.544-.499 0-.964-.159-1.394-.476-.431-.34-.726-.997-.884-1.972l-.17-.748c-.114-.59-.329-1.088-.646-1.496-.295-.43-.726-.646-1.292-.646-1.066 0-2.029.612-2.89 1.836-.839 1.224-1.394 3.083-1.666 5.576h7.14v.782h-7.242a36.51 36.51 0 0 0 0 4.454h7.242v.782h-7.174c.249 2.493.782 4.386 1.598 5.678.838 1.27 1.87 1.904 3.094 1.904.544 0 .952-.181 1.224-.544.272-.363.464-.884.578-1.564l.17-.714c.136-.907.408-1.553.816-1.938.43-.385.952-.578 1.564-.578.544 0 .997.181 1.36.544.362.34.544.827.544 1.462 0 1.201-.578 2.187-1.734 2.958-1.134.77-2.63 1.156-4.488 1.156-2.335 0-4.307-.691-5.916-2.074-1.587-1.405-2.607-3.502-3.06-6.29h-2.074Z" fill="#fff"/></svg>