<svg width="114" height="38" fill="none" xmlns="http://www.w3.org/2000/svg"><path fill-rule="evenodd" clip-rule="evenodd" d="M0 30V8h96v22H0Z" fill="url(#a)"/><path fill-rule="evenodd" clip-rule="evenodd" d="M114 19 94 38V0l20 19Z" fill="#DC4DFF"/><path d="M18.386 12.4h4.608c1.344 0 2.4.324 3.168.972.78.636 1.17 1.584 1.17 2.844 0 .876-.186 1.596-.558 2.16-.372.552-.9.996-1.584 1.332L28.034 25H25.46l-2.43-4.68h-2.34V25h-2.304V12.4Zm3.996 5.994c1.692 0 2.538-.684 2.538-2.052 0-.66-.192-1.158-.576-1.494-.384-.348-1.008-.522-1.872-.522H20.69v4.068h1.692Zm7.272-5.994h8.064v2.232h-5.706v2.682h4.428v2.232h-4.428v3.222h5.886V25h-8.244V12.4Zm19.986 0L45.158 25H42.98l-4.482-12.6h2.322l3.24 9.27 3.258-9.27h2.322Zm1.389 0h8.064v2.232h-5.706v2.682h4.428v2.232h-4.428v3.222h5.886V25h-8.244V12.4Zm10.23 0h2.268l5.382 8.136V12.4h2.304V25h-1.89l-5.76-8.64V25h-2.304V12.4Zm15.175 2.232H72.87V12.4h9.432v2.232h-3.564V25h-2.304V14.632Zm7.518-2.232h8.064v2.232H86.31v2.682h4.428v2.232H86.31v3.222h5.886V25h-8.244V12.4Z" fill="#fff"/><defs><linearGradient id="a" x1="50.92" y1="24.985" x2="7.15" y2="24.985" gradientUnits="userSpaceOnUse"><stop stop-color="#DC4DFF"/><stop offset="1" stop-color="#DC4DFF" stop-opacity=".01"/></linearGradient></defs></svg>