<svg width="222" height="203" fill="none" xmlns="http://www.w3.org/2000/svg"><path fill-rule="evenodd" clip-rule="evenodd" d="M106.999 105V40h49v65h-49Z" fill="#fff"/><path fill-rule="evenodd" clip-rule="evenodd" d="M140.999 105V19h48v86h-48Z" fill="#fff"/><path fill-rule="evenodd" clip-rule="evenodd" d="M172.999 105V40h49v65h-49Z" fill="#fff"/><path d="M190.561 54.368h20.134M119.628 54.368h20.124M154.489 54.368h20.123M190.561 66.053h20.134M119.628 66.053h20.124M154.489 66.053h20.123M190.561 77.737h20.134M119.628 77.737h20.124M190.561 89.421h20.134M119.628 89.421h20.124" stroke="#2CA0FF" stroke-width="6" stroke-linecap="round"/><path fill-rule="evenodd" clip-rule="evenodd" d="M156.999 105V87a8 8 0 0 1 16 0v18h-16Z" fill="#2CA0FF"/><path fill-rule="evenodd" clip-rule="evenodd" d="M146.999 17.5c0-9.665 7.835-17.5 17.5-17.5s17.5 7.835 17.5 17.5-7.835 17.5-17.5 17.5-17.5-7.835-17.5-17.5Z" fill="#E62048"/><path d="M164.738 11.03v12.825M171.59 17.545h-12.815" stroke="#fff" stroke-width="5" stroke-linecap="round"/><g opacity=".1"><mask id="a" style="mask-type:alpha" maskUnits="userSpaceOnUse" x="0" y="39" width="108" height="163"><path fill-rule="evenodd" clip-rule="evenodd" d="M.82 201.182V39.166h106.642v162.016H.819Z" fill="#071733"/></mask><g mask="url(#a)"><path fill-rule="evenodd" clip-rule="evenodd" d="M68.89 162.864a1.125 1.125 0 0 1 1.407.673l2.083 5.525a1.13 1.13 0 0 1-.685 1.463 52.836 52.836 0 0 1-17.551 3.536 52.825 52.825 0 0 1-17.555-3.536 1.13 1.13 0 0 1-.685-1.463l2.083-5.525a1.122 1.122 0 0 1 1.405-.673 48.083 48.083 0 0 0 14.752 2.995 48.108 48.108 0 0 0 14.747-2.995Zm29.801 33.594h-.001a.576.576 0 0 1-.09.536.665.665 0 0 1-.544.281H10.228a.657.657 0 0 1-.543-.281.576.576 0 0 1-.09-.536 35.806 35.806 0 0 1 23.838-23.423 4.998 4.998 0 0 0 1.889 1.185 57.109 57.109 0 0 0 18.82 3.745 57.083 57.083 0 0 0 18.82-3.745 4.998 4.998 0 0 0 1.888-1.185 35.797 35.797 0 0 1 23.839 23.423h.002ZM19.447 58.735a46.255 46.255 0 0 1 69.385 0c10.52 12.16 14.568 30.265 11.8 52.445a14.229 14.229 0 0 0-5.503-.245c-2.645-5.482-3.84-12.556-4.98-19.432-1.41-8.496-2.625-15.835-6.473-19.418-5.13-4.779-13.454-5.728-20.242-2.3h.001a19.38 19.38 0 0 1-18.59 0c-6.788-3.422-15.114-2.473-20.243 2.3-3.847 3.583-5.063 10.922-6.472 19.418-1.14 6.877-2.343 13.95-4.98 19.432h.002a14.218 14.218 0 0 0-5.505.246c-2.768-22.182 1.28-40.284 11.8-52.445v-.001Zm84.879 54.418c4.149-30.256-4.491-47.67-12.537-56.971v-.002a50.162 50.162 0 0 0-75.295 0C8.447 65.477-.19 82.898 3.957 113.153c-4.035 3.587-3.722 9.814-1.619 14.264a15.425 15.425 0 0 0 8.583 7.561c1.211.427 2.484.649 3.767.659.752.002 1.5-.086 2.232-.26a37.021 37.021 0 0 0 7.389 11.876c4.38 4.617 11.02 8.366 19.766 11.195-.08.571-.196 1.137-.348 1.693-1.07-.319-2.11-.651-3.113-.981a5.023 5.023 0 0 0-6.28 3.001l-2.083 5.528a5.01 5.01 0 0 0-.309 1.733 39.512 39.512 0 0 0-26.048 25.807 4.453 4.453 0 0 0 .625 4.055 4.588 4.588 0 0 0 3.712 1.903h87.825a4.595 4.595 0 0 0 3.714-1.904 4.458 4.458 0 0 0 .624-4.055 39.517 39.517 0 0 0-26.049-25.806 5.034 5.034 0 0 0-.31-1.733l-2.083-5.529a5.018 5.018 0 0 0-6.28-2.994c-1 .329-2.042.662-3.11.98v.001a13.593 13.593 0 0 1-.35-1.693c8.747-2.823 15.386-6.574 19.766-11.196a37.01 37.01 0 0 0 7.387-11.877 9.54 9.54 0 0 0 2.233.261 11.65 11.65 0 0 0 3.767-.66 15.426 15.426 0 0 0 8.583-7.561c2.101-4.454 2.416-10.682-1.621-14.269l-.001.002Z" fill="#071733"/></g><mask id="b" style="mask-type:alpha" maskUnits="userSpaceOnUse" x="0" y="35" width="107" height="168"><path fill-rule="evenodd" clip-rule="evenodd" d="M.82 203V35.606h105.92V203H.82Z" fill="#071733"/></mask><g mask="url(#b)"><path fill-rule="evenodd" clip-rule="evenodd" d="M42.57 159.653c-1.13-.337-2.23-.688-3.288-1.036a5.302 5.302 0 0 0-6.633 3.169l-2.2 5.838a5.286 5.286 0 0 0-.327 1.83A41.731 41.731 0 0 0 2.61 196.708a4.703 4.703 0 0 0 .66 4.282A4.849 4.849 0 0 0 7.19 203h92.76a4.854 4.854 0 0 0 3.923-2.011 4.709 4.709 0 0 0 .659-4.283 41.735 41.735 0 0 0-27.512-27.252 5.327 5.327 0 0 0-.328-1.83l-2.2-5.839a5.303 5.303 0 0 0-2.678-2.918 5.306 5.306 0 0 0-3.955-.244c-1.057.347-2.157.699-3.285 1.035v.001l-3.976 1.03s-4.659.845-7.027.879a32.192 32.192 0 0 1-7.002-.87l-4-1.045Z" fill="#071733"/></g><mask id="c" style="mask-type:alpha" maskUnits="userSpaceOnUse" x="24" y="103" width="60" height="38"><path fill-rule="evenodd" clip-rule="evenodd" d="M24.302 140.727v-37.47h58.954v37.47H24.302Z" fill="#071733"/></mask><g mask="url(#c)" fill-rule="evenodd" clip-rule="evenodd" fill="#071733"><path d="M56.112 127.362a1.9 1.9 0 0 1-1.602-.877 1.606 1.606 0 0 0-1.463 0 1.9 1.9 0 0 1-3.5-1.022c0-2.428 3.393-2.954 4.232-2.954.84 0 4.232.526 4.232 2.954 0 1.049-.85 1.899-1.9 1.899ZM67.252 115.223a1.899 1.899 0 0 1-1.189-3.382c3.264-2.61 8.545-2.207 10.913-.118a1.9 1.9 0 1 1-2.52 2.848 5.673 5.673 0 0 0-3.042-.744 5.673 5.673 0 0 0-2.974.98c-.337.27-.755.417-1.188.416Z"/><path d="M74.405 117.219a3.578 3.578 0 1 1-7.155 0 3.578 3.578 0 0 1 7.155 0M40.305 115.223a1.888 1.888 0 0 1-1.188-.416 5.67 5.67 0 0 0-2.973-.98 5.671 5.671 0 0 0-3.042.744 1.904 1.904 0 0 1-2.746-.111 1.899 1.899 0 0 1 .234-2.737c2.366-2.089 7.647-2.492 10.91.118a1.898 1.898 0 0 1-1.19 3.382h-.005Z"/><path d="M40.302 117.219a3.575 3.575 0 0 1-3.572 3.578 3.575 3.575 0 0 1-3.573-3.578c0-1.975 1.6-3.576 3.573-3.576a3.574 3.574 0 0 1 3.572 3.576M26.207 108.95a1.9 1.9 0 0 1-.686-3.676 27.794 27.794 0 0 1 18.963-.663 1.902 1.902 0 0 1-1.257 3.589 23.975 23.975 0 0 0-16.333.62c-.218.086-.451.13-.686.13ZM81.352 108.95a1.897 1.897 0 0 1-.687-.126 23.99 23.99 0 0 0-16.331-.62 1.9 1.9 0 0 1-1.257-3.586 27.788 27.788 0 0 1 18.96.658 1.9 1.9 0 0 1-.686 3.674h.001ZM53.78 140.727a19.699 19.699 0 0 1-9.706-2.706 1.903 1.903 0 0 1 1.857-3.319 15.006 15.006 0 0 0 15.697 0 1.9 1.9 0 0 1 2.79 2.175 1.901 1.901 0 0 1-.933 1.144 19.698 19.698 0 0 1-9.706 2.706Z"/></g><mask id="d" style="mask-type:alpha" maskUnits="userSpaceOnUse" x="1" y="39" width="106" height="76"><path fill-rule="evenodd" clip-rule="evenodd" d="M1.496 114.761V39.166h104.568v75.595H1.496Z" fill="#071733"/></mask><g mask="url(#d)"><path fill-rule="evenodd" clip-rule="evenodd" d="M92.18 56.519v-.002a51.165 51.165 0 0 0-76.799 0c-8.208 9.48-17.019 27.249-12.788 58.106l3.764-2.01c2.771-1.48 5.613-.251 5.613-.251h.002-.002s2.408.689 3.417 2.132c3.086-6.204 4.419-14.197 5.598-21.298 1.262-7.617 2.454-14.811 5.385-17.539a14.632 14.632 0 0 1 16.138-1.707 23.743 23.743 0 0 0 22.55 0 14.636 14.636 0 0 1 16.138 1.705c2.93 2.729 4.123 9.922 5.386 17.54 1.194 7.203 2.547 15.327 5.734 21.566.582-1.079 1.967-1.781 2.834-2.132 3.85-1.272 8.34 1.041 8.34 1.041l1.499.8c4.18-30.763-4.615-48.48-12.808-57.951" fill="#071733"/></g></g><mask id="e" style="mask-type:alpha" maskUnits="userSpaceOnUse" x="26" y="39" width="108" height="163"><path fill-rule="evenodd" clip-rule="evenodd" d="M26.676 201.182V39.166h106.642v162.016H26.676Z" fill="#fff"/></mask><g mask="url(#e)"><path fill-rule="evenodd" clip-rule="evenodd" d="M94.744 162.864a1.125 1.125 0 0 1 1.406.673l2.083 5.525a1.129 1.129 0 0 1-.685 1.463 52.835 52.835 0 0 1-17.55 3.536 52.825 52.825 0 0 1-17.556-3.536 1.13 1.13 0 0 1-.684-1.463l2.082-5.525a1.122 1.122 0 0 1 1.406-.673 48.083 48.083 0 0 0 14.751 2.995 48.108 48.108 0 0 0 14.747-2.995Zm29.801 33.594h-.002a.576.576 0 0 1-.089.536.667.667 0 0 1-.544.281H36.082a.657.657 0 0 1-.543-.281.576.576 0 0 1-.091-.536 35.806 35.806 0 0 1 23.839-23.423 5 5 0 0 0 1.889 1.185 57.109 57.109 0 0 0 18.82 3.745 57.083 57.083 0 0 0 18.819-3.745 5.005 5.005 0 0 0 1.889-1.185 35.795 35.795 0 0 1 23.838 23.423h.003ZM45.3 58.735a46.255 46.255 0 0 1 69.386 0c10.52 12.16 14.568 30.265 11.8 52.445a14.233 14.233 0 0 0-5.504-.245c-2.644-5.482-3.84-12.556-4.98-19.432-1.409-8.496-2.625-15.835-6.472-19.418-5.131-4.779-13.455-5.728-20.243-2.3h.002a19.38 19.38 0 0 1-18.591 0c-6.787-3.422-15.113-2.473-20.242 2.3-3.848 3.583-5.064 10.922-6.472 19.418-1.14 6.877-2.344 13.95-4.98 19.432h.001a14.218 14.218 0 0 0-5.505.246c-2.767-22.182 1.28-40.284 11.8-52.445v-.001Zm84.88 54.418c4.148-30.256-4.492-47.67-12.537-56.971v-.002A50.167 50.167 0 0 0 65.99 41.163 50.16 50.16 0 0 0 42.348 56.18C34.3 65.475 25.662 82.897 29.81 113.151c-4.036 3.587-3.722 9.814-1.62 14.264a15.425 15.425 0 0 0 8.584 7.561c1.21.427 2.483.649 3.767.659.752.002 1.5-.086 2.231-.26a37.02 37.02 0 0 0 7.39 11.876c4.38 4.617 11.02 8.366 19.765 11.195-.079.571-.195 1.137-.347 1.693-1.07-.319-2.111-.651-3.113-.981a5.023 5.023 0 0 0-6.28 3.001l-2.083 5.528a5.012 5.012 0 0 0-.31 1.733 39.512 39.512 0 0 0-26.048 25.807 4.453 4.453 0 0 0 .626 4.055 4.588 4.588 0 0 0 3.711 1.903h87.826a4.594 4.594 0 0 0 3.713-1.904 4.455 4.455 0 0 0 .624-4.055 39.514 39.514 0 0 0-26.048-25.806 5.046 5.046 0 0 0-.31-1.733l-2.083-5.529a5.018 5.018 0 0 0-6.28-2.994c-1.001.329-2.043.662-3.11.98v.001a13.593 13.593 0 0 1-.35-1.693c8.746-2.823 15.385-6.574 19.765-11.196a37.01 37.01 0 0 0 7.388-11.877 9.539 9.539 0 0 0 2.233.261 11.65 11.65 0 0 0 3.767-.66 15.43 15.43 0 0 0 8.583-7.561c2.1-4.454 2.415-10.682-1.622-14.269v.002Z" fill="#fff"/></g><mask id="f" style="mask-type:alpha" maskUnits="userSpaceOnUse" x="26" y="35" width="107" height="168"><path fill-rule="evenodd" clip-rule="evenodd" d="M26.676 203V35.606h105.921V203H26.676Z" fill="#103A77"/></mask><g mask="url(#f)"><path fill-rule="evenodd" clip-rule="evenodd" d="M68.426 159.653c-1.13-.337-2.23-.688-3.288-1.036a5.302 5.302 0 0 0-6.633 3.169l-2.2 5.838a5.288 5.288 0 0 0-.326 1.83 41.731 41.731 0 0 0-27.512 27.254 4.703 4.703 0 0 0 .66 4.282 4.849 4.849 0 0 0 3.92 2.01h92.76a4.85 4.85 0 0 0 3.922-2.011 4.709 4.709 0 0 0 .659-4.283 41.733 41.733 0 0 0-27.511-27.252 5.342 5.342 0 0 0-.328-1.83l-2.2-5.839a5.303 5.303 0 0 0-2.679-2.918 5.306 5.306 0 0 0-3.954-.244c-1.057.347-2.157.699-3.285 1.035v.001l-3.977 1.03s-4.658.845-7.027.879a32.19 32.19 0 0 1-7.001-.87l-4-1.045Z" fill="#103A77"/></g><mask id="g" style="mask-type:alpha" maskUnits="userSpaceOnUse" x="50" y="103" width="60" height="38"><path fill-rule="evenodd" clip-rule="evenodd" d="M50.159 140.727v-37.47h58.953v37.47H50.159Z" fill="#103A77"/></mask><g mask="url(#g)" fill-rule="evenodd" clip-rule="evenodd" fill="#103A77"><path d="M81.966 127.362c-.65 0-1.254-.33-1.603-.877a1.61 1.61 0 0 0-1.465 0 1.9 1.9 0 0 1-3.505-1.022c0-2.428 3.397-2.954 4.237-2.954.841 0 4.237.526 4.237 2.954a1.9 1.9 0 0 1-1.901 1.899ZM93.11 115.223a1.899 1.899 0 0 1-1.19-3.382c3.263-2.61 8.544-2.207 10.912-.118a1.9 1.9 0 1 1-2.519 2.848 5.675 5.675 0 0 0-3.043-.744 5.673 5.673 0 0 0-2.974.98c-.336.27-.755.417-1.187.416Z"/><path d="M100.251 117.219a3.575 3.575 0 0 1-3.572 3.578 3.574 3.574 0 0 1-3.572-3.578c0-1.975 1.6-3.576 3.572-3.576a3.574 3.574 0 0 1 3.572 3.576M66.153 115.223a1.885 1.885 0 0 1-1.186-.416 5.662 5.662 0 0 0-2.972-.98 5.663 5.663 0 0 0-3.039.744 1.902 1.902 0 0 1-3.212-1.529c.044-.517.298-.994.702-1.319 2.364-2.089 7.64-2.492 10.901.118a1.899 1.899 0 0 1-1.189 3.382h-.005Z"/><path d="M66.158 117.219c0 1.976-1.599 3.578-3.571 3.578a3.575 3.575 0 0 1-3.573-3.578 3.574 3.574 0 0 1 3.573-3.576 3.574 3.574 0 0 1 3.571 3.576M52.063 108.95a1.902 1.902 0 0 1-.686-3.676 27.769 27.769 0 0 1 18.954-.663 1.902 1.902 0 0 1-1.256 3.589 23.954 23.954 0 0 0-16.325.62c-.219.086-.452.13-.687.13ZM107.209 108.95a1.9 1.9 0 0 1-.687-.126 23.99 23.99 0 0 0-16.332-.62 1.9 1.9 0 0 1-1.257-3.586 27.787 27.787 0 0 1 18.961.658 1.9 1.9 0 0 1-.686 3.674h.001ZM79.63 140.727a19.682 19.682 0 0 1-9.7-2.706 1.904 1.904 0 0 1-.69-2.567 1.898 1.898 0 0 1 2.546-.752 14.993 14.993 0 0 0 15.69 0 1.9 1.9 0 0 1 2.79 2.175c-.145.492-.482.904-.934 1.144a19.683 19.683 0 0 1-9.701 2.706Z"/></g><mask id="h" style="mask-type:alpha" maskUnits="userSpaceOnUse" x="27" y="39" width="105" height="76"><path fill-rule="evenodd" clip-rule="evenodd" d="M27.353 114.761V39.166H131.91v75.595H27.353Z" fill="#2CA0FF"/></mask><g mask="url(#h)"><path fill-rule="evenodd" clip-rule="evenodd" d="M118.029 56.519v-.002a51.162 51.162 0 0 0-76.793 0c-8.207 9.48-17.017 27.249-12.786 58.106l3.763-2.01c2.771-1.48 5.613-.251 5.613-.251h.001-.001s2.407.689 3.416 2.132c3.086-6.204 4.418-14.197 5.597-21.298 1.263-7.617 2.454-14.811 5.385-17.539A14.63 14.63 0 0 1 68.36 73.95a23.739 23.739 0 0 0 22.548 0 14.633 14.633 0 0 1 16.137 1.705c2.929 2.729 4.123 9.922 5.385 17.54 1.194 7.203 2.547 15.327 5.733 21.566.583-1.079 1.967-1.781 2.835-2.132 3.849-1.272 8.339 1.041 8.339 1.041l1.498.8c4.181-30.763-4.614-48.48-12.806-57.951" fill="#2CA0FF"/></g></svg>