<svg width="202" height="199" fill="none" xmlns="http://www.w3.org/2000/svg"><mask id="a" style="mask-type:alpha" maskUnits="userSpaceOnUse" x="0" y="0" width="202" height="199"><path fill-rule="evenodd" clip-rule="evenodd" d="M0 199V0h202v199H0Z" fill="#fff"/></mask><g mask="url(#a)"><path fill-rule="evenodd" clip-rule="evenodd" d="M73.518 176.334h51.018V99.807H73.518v76.527Zm53.852 5.669H70.685a2.833 2.833 0 0 1-2.834-2.834l-.001-82.197a2.833 2.833 0 0 1 2.834-2.834h56.688a2.834 2.834 0 0 1 2.834 2.834v82.197a2.833 2.833 0 0 1-2.834 2.834h-.002Z" fill="#fff"/><path d="M73.518 176.334h-1.5v1.5h1.5v-1.5Zm51.018 0v1.5h1.5v-1.5h-1.5Zm0-76.527h1.5v-1.5h-1.5v1.5Zm-51.018 0v-1.5h-1.5v1.5h1.5Zm-5.667 79.362h1.5-1.5Zm-.001-82.197h-1.5 1.5Zm62.356 82.197h-1.5v.001l1.5-.001Zm-56.688-1.335h51.018v-3H73.518v3Zm52.518-1.5V99.807h-3v76.527h3Zm-1.5-78.027H73.518v3h51.018v-3Zm-52.518 1.5v76.527h3V99.807h-3Zm55.352 80.696H70.685v3h56.685v-3Zm-56.685 0a1.333 1.333 0 0 1-1.334-1.334h-3a4.333 4.333 0 0 0 4.334 4.334v-3Zm-1.334-1.334-.001-82.197h-3v82.197h3Zm-.001-82.197c0-.738.597-1.334 1.334-1.334v-3a4.333 4.333 0 0 0-4.334 4.334h3Zm1.334-1.334h56.688v-3H70.683v3Zm56.688 0c.737 0 1.334.596 1.334 1.334h3a4.333 4.333 0 0 0-4.334-4.334v3Zm1.334 1.334v82.197h3V96.972h-3Zm0 82.198c0 .736-.596 1.333-1.334 1.333v3a4.333 4.333 0 0 0 4.334-4.335l-3 .002Zm-1.334 1.333h-.002v3h.002v-3Z" fill="#fff"/><path fill-rule="evenodd" clip-rule="evenodd" d="M130.205 176.334h48.185l-.001-51.018h-48.182l-.002 51.018Zm51.019 5.669h-53.855a2.834 2.834 0 0 1-2.834-2.834v-56.688a2.834 2.834 0 0 1 2.834-2.834h53.852a2.834 2.834 0 0 1 2.834 2.834v56.688a2.832 2.832 0 0 1-2.833 2.834h.002Z" fill="#fff"/><path d="M130.205 176.334h-1.5v1.5h1.5v-1.5Zm48.185 0v1.5h1.5v-1.5h-1.5Zm-.001-51.018h1.5v-1.5h-1.5v1.5Zm-48.182 0v-1.5h-1.5v1.5h1.5Zm53.848 53.853h-1.5v.001l1.5-.001Zm-53.85-1.335h48.185v-3h-48.185v3Zm49.685-1.5-.001-51.018h-3l.001 51.018h3Zm-1.501-52.518h-48.182v3h48.182v-3Zm-49.682 1.5-.002 51.018h3l.002-51.018h-3Zm52.517 55.187h-53.855v3h53.855v-3Zm-53.855 0a1.333 1.333 0 0 1-1.334-1.334h-3a4.333 4.333 0 0 0 4.334 4.334v-3Zm-1.334-1.334v-56.688h-3v56.688h3Zm0-56.688c0-.737.597-1.334 1.334-1.334v-3a4.333 4.333 0 0 0-4.334 4.334h3Zm1.334-1.334h53.852v-3h-53.852v3Zm53.852 0c.737 0 1.334.597 1.334 1.334h3a4.333 4.333 0 0 0-4.334-4.334v3Zm1.334 1.334v56.688h3v-56.688h-3Zm0 56.689c0 .737-.596 1.333-1.333 1.333v3a4.332 4.332 0 0 0 4.333-4.335l-3 .002Zm-1.333 4.333h.002v-3h-.002v3Z" fill="#fff"/><path fill-rule="evenodd" clip-rule="evenodd" d="M19.666 176.334h48.185v-59.521H19.667l-.002 59.521Zm51.019 5.669H16.83a2.833 2.833 0 0 1-2.834-2.834v-65.191a2.833 2.833 0 0 1 2.834-2.834h53.852a2.833 2.833 0 0 1 2.834 2.834v65.191a2.831 2.831 0 0 1-2.833 2.834h.002Z" fill="#fff"/><path d="M19.666 176.334h-1.5v1.5h1.5v-1.5Zm48.185 0v1.5h1.5v-1.5h-1.5Zm0-59.521h1.5v-1.5h-1.5v1.5Zm-48.183 0v-1.5h-1.5v1.5h1.5Zm53.848 62.356h-1.5v.001l1.5-.001Zm-53.85-1.335h48.185v-3H19.666v3Zm49.685-1.5v-59.521h-3v59.521h3Zm-1.5-61.021H19.667v3H67.85v-3Zm-49.683 1.5-.002 59.521h3l.002-59.521h-3Zm52.517 63.69H16.83v3h53.855v-3Zm-53.855 0a1.333 1.333 0 0 1-1.334-1.334h-3a4.333 4.333 0 0 0 4.334 4.334v-3Zm-1.334-1.334v-65.191h-3v65.191h3Zm0-65.191c0-.737.597-1.334 1.334-1.334v-3a4.333 4.333 0 0 0-4.334 4.334h3Zm1.334-1.334h53.852v-3H16.83v3Zm53.852 0c.737 0 1.334.597 1.334 1.334h3a4.333 4.333 0 0 0-4.334-4.334v3Zm1.334 1.334v65.191h3v-65.191h-3Zm0 65.192c0 .737-.596 1.333-1.333 1.333v3a4.33 4.33 0 0 0 4.333-4.335l-3 .002Zm-1.333 4.333h.002v-3h-.002v3Z" fill="#fff"/><path fill-rule="evenodd" clip-rule="evenodd" d="M53.68 164.995H33.84a2.833 2.833 0 0 1-2.628-1.775 2.833 2.833 0 0 1 .663-3.103l16.873-16.239c.77-.743 1.734-1.919 1.944-3.325.247-1.66-.184-3.364-1.185-4.667-.618-.805-1.732-1.811-3.537-2.021a7.285 7.285 0 0 0-.793-.045c-3.706 0-5.669 1.958-5.669 5.668a2.833 2.833 0 1 1-5.667 0c0-6.886 4.45-11.335 11.336-11.335.488 0 .967.028 1.437.079a10.815 10.815 0 0 1 7.391 4.202c1.928 2.52 2.764 5.781 2.29 8.953-.35 2.364-1.603 4.637-3.618 6.573L40.87 159.326h12.81a2.833 2.833 0 0 1 2.833 2.834 2.833 2.833 0 0 1-2.834 2.835ZM90.524 133.817a2.826 2.826 0 0 1-2.005-.831 2.833 2.833 0 0 1 0-4.009l8.505-8.505a2.834 2.834 0 0 1 4.01 0 2.833 2.833 0 0 1 0 4.009l-8.505 8.505a2.83 2.83 0 0 1-2.005.831Z" fill="#fff" stroke="#fff" stroke-width="3"/><path fill-rule="evenodd" clip-rule="evenodd" d="M99.029 156.498a2.833 2.833 0 0 1-2.833-2.834v-31.185a2.833 2.833 0 1 1 5.666 0v31.185a2.833 2.833 0 0 1-2.833 2.834Z" fill="#fff" stroke="#fff" stroke-width="3"/><path fill-rule="evenodd" clip-rule="evenodd" d="M107.533 156.498h-17.01a2.836 2.836 0 0 1-2.834-2.838 2.836 2.836 0 0 1 2.835-2.838h17.009a2.836 2.836 0 0 1 2.834 2.838 2.836 2.836 0 0 1-2.834 2.838" fill="#fff"/><path d="M107.533 156.498h-17.01a2.836 2.836 0 0 1-2.834-2.838 2.836 2.836 0 0 1 2.835-2.838h17.009a2.836 2.836 0 0 1 2.834 2.838 2.836 2.836 0 0 1-2.834 2.838" stroke="#fff" stroke-width="3"/><path fill-rule="evenodd" clip-rule="evenodd" d="M152.876 153.661a2.833 2.833 0 0 1-2.833-2.834 2.833 2.833 0 0 1 2.833-2.834 5.676 5.676 0 0 0 5.668-5.671 5.675 5.675 0 0 0-5.668-5.67 5.674 5.674 0 0 0-5.667 5.67 2.833 2.833 0 1 1-5.667 0c0-6.253 5.083-11.339 11.334-11.339 6.251 0 11.334 5.086 11.334 11.339.002 6.253-5.083 11.339-11.334 11.339Z" fill="#fff" stroke="#fff" stroke-width="3"/><path fill-rule="evenodd" clip-rule="evenodd" d="M152.876 170.664c-6.251 0-11.334-5.083-11.334-11.334a2.832 2.832 0 0 1 2.833-2.833 2.832 2.832 0 0 1 2.834 2.833 5.673 5.673 0 0 0 5.667 5.667 5.673 5.673 0 0 0 5.668-5.667 5.674 5.674 0 0 0-5.668-5.668 2.832 2.832 0 0 1-2.833-2.833 2.832 2.832 0 0 1 2.833-2.833c6.251 0 11.334 5.083 11.334 11.334.001 6.25-5.083 11.334-11.334 11.334Z" fill="#fff" stroke="#fff" stroke-width="3"/><path fill-rule="evenodd" clip-rule="evenodd" d="M79.187 94.138h39.682V88.47H79.187v5.67Zm42.515 5.668H76.35a2.833 2.833 0 0 1-2.833-2.834V85.635a2.833 2.833 0 0 1 2.834-2.834h45.348a2.833 2.833 0 0 1 2.834 2.834v11.337a2.831 2.831 0 0 1-2.833 2.834h.002Z" fill="#fff"/><path d="M79.187 94.138h-1.5v1.5h1.5v-1.5Zm39.682 0v1.5h1.5v-1.5h-1.5Zm0-5.669h1.5v-1.5h-1.5v1.5Zm-39.682 0v-1.5h-1.5v1.5h1.5Zm45.346 8.503h-1.5v.001h1.5Zm-45.346-1.334h39.682v-3H79.187v3Zm41.182-1.5V88.47h-3v5.67h3Zm-1.5-7.169H79.187v3h39.682v-3Zm-41.182 1.5v5.67h3v-5.67h-3Zm44.015 9.837H76.35v3h45.352v-3Zm-45.352 0a1.333 1.333 0 0 1-1.333-1.334h-3a4.333 4.333 0 0 0 4.334 4.334v-3Zm-1.333-1.334V85.635h-3v11.337h3Zm0-11.337c0-.738.597-1.334 1.334-1.334v-3a4.333 4.333 0 0 0-4.334 4.334h3Zm1.334-1.334h45.348v-3H76.35v3Zm45.348 0c.737 0 1.334.596 1.334 1.334h3a4.333 4.333 0 0 0-4.334-4.334v3Zm1.334 1.334v11.337h3V85.635h-3Zm0 11.338a1.33 1.33 0 0 1-1.333 1.333v3a4.331 4.331 0 0 0 4.333-4.335l-3 .002Zm-1.333 4.333h.002v-3h-.002v3Z" fill="#fff"/><path fill-rule="evenodd" clip-rule="evenodd" d="M87.69 71.464h22.675c.017-8.177 1.528-19.951 4.348-28.343h-31.37c2.82 8.392 4.33 20.166 4.348 28.343Zm24.092 5.67h-25.51c-2.462 0-4.251-1.761-4.251-4.187v-1.349c0-9.112-2.021-22.865-5.402-30.115a2.832 2.832 0 0 1 2.568-4.031h39.682a2.835 2.835 0 0 1 2.572 4.033c-3.386 7.248-5.407 21.003-5.407 30.115v1.35c0 2.423-1.789 4.183-4.252 4.183Z" fill="#fff"/><path d="M110.365 71.464v1.5h1.497l.003-1.497-1.5-.003Zm4.348-28.343 1.422.478.664-1.978h-2.086v1.5Zm-31.37 0v-1.5h-2.087l.665 1.978 1.422-.478Zm4.348 28.343v1.5h1.504l-.004-1.503-1.5.003ZM76.62 41.483l1.36-.634h-.001l-1.36.634Zm.179-2.721 1.263.808.001-.002-1.264-.806Zm44.464.002 1.263-.808-1.263.808Zm.179 2.721 1.359.635.001-.003-1.36-.632Zm-33.75 31.48h22.674v-3H87.69v3Zm24.174-1.498c.017-8.054 1.512-19.662 4.27-27.868l-2.844-.956c-2.882 8.578-4.409 20.518-4.426 28.818l3 .006Zm2.848-29.846h-31.37v3h31.37v-3Zm-32.792 1.978c2.758 8.206 4.253 19.814 4.27 27.868l3-.006c-.018-8.3-1.543-20.24-4.427-28.818l-2.843.956Zm5.77 26.365v3-3Zm24.091 5.67h-25.51v3h25.51v-3Zm-25.51 0c-1.656 0-2.751-1.112-2.751-2.687h-3c0 3.276 2.483 5.686 5.751 5.686v-3Zm-2.751-2.687v-1.349h-3v1.349h3Zm0-1.349c0-4.652-.514-10.453-1.454-16.006-.936-5.532-2.314-10.937-4.089-14.743l-2.719 1.268c1.607 3.445 2.93 8.54 3.85 13.976.916 5.413 1.412 11.045 1.412 15.505h3Zm-5.543-30.75a1.328 1.328 0 0 1 .084-1.278l-2.528-1.617a4.328 4.328 0 0 0-.274 4.165l2.718-1.27Zm.085-1.28a1.332 1.332 0 0 1 1.124-.616v-3a4.332 4.332 0 0 0-3.654 2.003l2.53 1.614Zm1.124-.616h39.682v-3H79.187v3Zm39.682 0c.455 0 .881.233 1.129.62l2.527-1.617a4.341 4.341 0 0 0-3.656-2.003v3Zm1.129.62c.243.38.276.863.082 1.281l2.721 1.264a4.334 4.334 0 0 0-.276-4.161l-2.527 1.616Zm.084 1.278c-1.777 3.805-3.156 9.21-4.093 14.743-.941 5.554-1.455 11.355-1.455 16.007h3c0-4.46.496-10.092 1.413-15.506.92-5.435 2.245-10.531 3.853-13.974l-2.718-1.27Zm-5.548 30.75v1.35h3V71.6h-3Zm0 1.35c0 1.572-1.095 2.683-2.752 2.683v3c3.268 0 5.752-2.41 5.752-5.684h-3Zm-2.752 2.683v3-3Z" fill="#fff"/><path fill-rule="evenodd" clip-rule="evenodd" d="M96.193 82.8h5.669v-5.669h-5.669v5.67Zm8.503 5.67H93.359a2.833 2.833 0 0 1-2.834-2.834V74.299a2.833 2.833 0 0 1 2.834-2.834h11.337a2.833 2.833 0 0 1 2.834 2.834v11.337a2.833 2.833 0 0 1-2.834 2.834" fill="#fff"/><path d="M96.193 82.8h-1.5v1.5h1.5v-1.5Zm5.669 0v1.5h1.5v-1.5h-1.5Zm0-5.669h1.5v-1.5h-1.5v1.5Zm-5.669 0v-1.5h-1.5v1.5h1.5Zm0 7.17h5.669v-3h-5.669v3Zm7.169-1.5v-5.67h-3v5.67h3Zm-1.5-7.17h-5.669v3h5.669v-3Zm-7.169 1.5v5.67h3v-5.67h-3Zm10.003 9.839H93.359v3h11.337v-3Zm-11.337 0a1.333 1.333 0 0 1-1.334-1.334h-3a4.333 4.333 0 0 0 4.334 4.334v-3Zm-1.334-1.334V74.299h-3v11.337h3Zm0-11.337c0-.738.597-1.334 1.334-1.334v-3a4.333 4.333 0 0 0-4.334 4.334h3Zm1.334-1.334h11.337v-3H93.359v3Zm11.337 0c.737 0 1.334.596 1.334 1.334h3a4.333 4.333 0 0 0-4.334-4.334v3Zm1.334 1.334v11.337h3V74.299h-3Zm0 11.337c0 .737-.597 1.334-1.334 1.334v3a4.333 4.333 0 0 0 4.334-4.334h-3Z" fill="#fff"/><path fill-rule="evenodd" clip-rule="evenodd" d="M87.69 37.452h22.676l-.001-2.82c0-1.57-1.278-2.85-2.849-2.85H90.539a2.852 2.852 0 0 0-2.848 2.85v2.82Zm25.51 5.67H84.855a2.833 2.833 0 0 1-2.834-2.835v-5.655c0-4.697 3.821-8.517 8.518-8.517h16.977c4.697 0 8.518 3.82 8.518 8.517v5.654a2.834 2.834 0 0 1-2.834 2.835Z" fill="#fff"/><path d="M87.69 37.452h-1.5v1.5h1.5v-1.5Zm22.676 0v1.5h1.5v-1.5h-1.5Zm-.001-2.82h-1.5v.001h1.5Zm2.835 8.49v1.5h1.5v-1.5h-1.5Zm0 0v-1.5h-1.5v1.5h1.5Zm-25.51-4.17h22.676v-3H87.691v3Zm24.176-1.5-.001-2.82-3 .001.001 2.82 3-.002Zm-.001-2.82a4.353 4.353 0 0 0-4.349-4.35v3c.742 0 1.349.607 1.349 1.35h3Zm-4.349-4.35H90.539v3h16.977v-3Zm-16.977 0a4.352 4.352 0 0 0-4.348 4.35h3c0-.743.606-1.35 1.348-1.35v-3Zm-4.348 4.35v2.82h3v-2.82h-3Zm27.009 6.99H84.855v3H113.2v-3Zm-28.345 0a1.333 1.333 0 0 1-1.334-1.335h-3a4.333 4.333 0 0 0 4.334 4.334v-3Zm-1.334-1.335v-5.655h-3v5.655h3Zm0-5.655c0-3.869 3.15-7.017 7.018-7.017v-3c-5.525 0-10.017 4.491-10.017 10.017h3Zm7.018-7.017h16.977v-3H90.539v3Zm16.977 0c3.868 0 7.018 3.148 7.018 7.017h3c0-5.526-4.493-10.017-10.018-10.017v3Zm7.018 7.017v5.654h3v-5.654h-3Zm0 5.654c0 .74-.598 1.335-1.334 1.335v3a4.334 4.334 0 0 0 4.334-4.335h-3ZM111.7 43.12h3-3Z" fill="#fff"/><path fill-rule="evenodd" clip-rule="evenodd" d="M96.194 26.114h5.669l-.002-5.669a2.834 2.834 0 0 0-5.667 0v5.67Zm8.503 5.668H93.36a2.833 2.833 0 0 1-2.834-2.834l-.002-8.503c0-4.688 3.815-8.503 8.504-8.503 4.688 0 8.503 3.815 8.503 8.503v8.503a2.834 2.834 0 0 1-2.834 2.834Z" fill="#fff"/><path d="M96.194 26.114h-1.5v1.5h1.5v-1.5Zm5.669 0v1.5h1.5v-1.5h-1.5Zm-.002-5.669h-1.5 1.5Zm-5.667 0h1.5-1.5Zm-5.668 8.503h1.5-1.5Zm-.002-8.503h-1.5 1.5Zm5.67 7.17h5.669v-3h-5.67v3Zm7.169-1.501-.002-5.67-3 .002.002 5.669 3-.001Zm-.002-5.669a4.335 4.335 0 0 0-4.334-4.334v3c.737 0 1.334.598 1.334 1.334h3Zm-4.334-4.334a4.335 4.335 0 0 0-4.333 4.334h3c0-.736.597-1.334 1.334-1.334v-3Zm-4.333 4.334v5.67h3v-5.67h-3Zm10.003 9.837H93.36v3h11.337v-3Zm-11.337 0a1.333 1.333 0 0 1-1.334-1.334h-3a4.333 4.333 0 0 0 4.334 4.334v-3Zm-1.334-1.334-.002-8.503h-3l.002 8.503h3Zm-.002-8.503c0-3.86 3.144-7.003 7.004-7.003v-3c-5.517 0-10.004 4.486-10.004 10.003h3Zm7.004-7.003c3.859 0 7.003 3.143 7.003 7.003h3c0-5.517-4.487-10.003-10.004-10.003v3Zm7.003 7.003v8.503h3v-8.503h-3Zm0 8.503c0 .738-.597 1.334-1.334 1.334v3a4.333 4.333 0 0 0 4.334-4.334h-3Z" fill="#fff"/><path fill-rule="evenodd" clip-rule="evenodd" d="M116.573 62.45c.633.295 1.401.511 2.294.511a5.675 5.675 0 0 0 5.669-5.67c0-3.312-2.891-6.033-6.233-5.634a105.031 105.031 0 0 0-1.73 10.794Zm2.294 6.18c-2.565 0-5.006-.87-7.057-2.513a2.826 2.826 0 0 1-1.051-2.467c.456-5.059 1.309-10.376 2.407-14.965a2.817 2.817 0 0 1 1.774-1.998c1.308-.485 2.629-.732 3.927-.732 6.253 0 11.337 5.084 11.337 11.337.001 6.253-5.084 11.338-11.337 11.338Z" fill="#fff"/><path d="m116.573 62.45-1.491-.16-.115 1.068.974.453.632-1.36Zm1.73-10.793-.178-1.49-1.061.128-.227 1.044 1.466.318Zm-6.493 14.46.937-1.171-.002-.002-.935 1.173Zm-1.051-2.467-1.494-.134 1.494.134Zm2.407-14.965 1.458.349-1.458-.35Zm1.774-1.998.514 1.41.008-.004-.522-1.406Zm15.264 10.605h-1.5 1.5Zm-14.263 6.519c.801.373 1.785.65 2.926.65v-3a3.9 3.9 0 0 1-1.661-.37l-1.265 2.72Zm2.926.65a7.175 7.175 0 0 0 7.169-7.17h-3a4.175 4.175 0 0 1-4.169 4.17v3Zm7.169-7.17c0-4.164-3.63-7.635-7.911-7.123l.356 2.979c2.403-.288 4.555 1.683 4.555 4.145h3Zm-9.199-5.952a106.377 106.377 0 0 0-1.755 10.952l2.983.32c.388-3.612.979-7.292 1.704-10.636l-2.932-.636Zm2.03 15.791c-2.215 0-4.327-.748-6.12-2.184l-1.875 2.341c2.309 1.85 5.079 2.843 7.995 2.843v-3Zm-6.122-2.186a1.327 1.327 0 0 1-.492-1.159l-2.988-.27a4.326 4.326 0 0 0 1.61 3.775l1.87-2.346Zm-.493-1.159c.451-4.993 1.293-10.238 2.372-14.751l-2.917-.698c-1.116 4.666-1.98 10.054-2.442 15.18l2.987.27Zm2.372-14.752a1.32 1.32 0 0 1 .83-.937l-1.028-2.818a4.32 4.32 0 0 0-2.719 3.058l2.917.697Zm.838-.94c1.155-.428 2.299-.638 3.405-.638v-3c-1.49 0-2.987.284-4.448.826l1.043 2.813Zm3.405-.638c5.424 0 9.837 4.413 9.837 9.837h3c0-7.081-5.756-12.837-12.837-12.837v3Zm9.837 9.837c.001 5.424-4.413 9.838-9.837 9.838v3c7.081 0 12.838-5.757 12.837-12.838h-3Zm-9.837 9.838v3-3Z" fill="#fff"/><path fill-rule="evenodd" clip-rule="evenodd" d="M79.188 51.624a5.675 5.675 0 0 0-5.67 5.67 5.675 5.675 0 0 0 5.67 5.668c.893 0 1.664-.216 2.293-.51a104.11 104.11 0 0 0-1.729-10.796 5.08 5.08 0 0 0-.564-.032Zm0 17.006c-6.253 0-11.337-5.084-11.337-11.337s5.084-11.337 11.337-11.337c1.297 0 2.619.247 3.925.73a2.835 2.835 0 0 1 1.775 1.998c1.093 4.587 1.95 9.901 2.407 14.966a2.83 2.83 0 0 1-1.051 2.466c-2.052 1.644-4.492 2.514-7.056 2.514Z" fill="#fff"/><path d="m81.48 62.452.636 1.359.97-.454-.114-1.065-1.491.16Zm-1.728-10.796 1.466-.319-.23-1.053-1.07-.119-.166 1.491Zm-.564 16.974v1.5H79.23l-.042-1.5Zm3.925-21.943-.521 1.406.004.002.517-1.408Zm1.775 1.997 1.459-.347-.001-.004-1.458.351Zm2.407 14.966 1.494-.135-1.494.135Zm-1.051 2.466-.937-1.172-.001.002.938 1.17Zm-7.056 2.514v-1.5h-.042l.042 1.5Zm0-18.506a7.175 7.175 0 0 0-7.17 7.17h3a4.175 4.175 0 0 1 4.17-4.17v-3Zm-7.17 7.17a7.175 7.175 0 0 0 7.17 7.168v-3a4.175 4.175 0 0 1-4.17-4.169h-3Zm7.17 7.168c1.14 0 2.127-.276 2.928-.651l-1.271-2.718a3.882 3.882 0 0 1-1.657.37v3Zm3.784-2.17c-.4-3.714-1.003-7.5-1.754-10.955l-2.932.638a102.641 102.641 0 0 1 1.703 10.637l2.983-.32Zm-3.054-12.127a6.583 6.583 0 0 0-.73-.04v3c.128 0 .26.006.398.022l.332-2.982Zm-.73 16.965c-5.425 0-9.837-4.412-9.837-9.837h-3c0 7.081 5.755 12.837 12.837 12.837v-3Zm-9.837-9.837c0-5.424 4.412-9.837 9.837-9.837v-3c-7.082 0-12.837 5.756-12.837 12.837h3Zm9.837-9.837c1.106 0 2.251.21 3.404.637l1.042-2.813c-1.46-.54-2.957-.824-4.446-.824v3Zm3.407.639c.414.152.73.504.835.941l2.916-.703a4.335 4.335 0 0 0-2.716-3.054l-1.034 2.816Zm.834.937c1.075 4.512 1.921 9.755 2.372 14.753l2.988-.27c-.463-5.132-1.33-10.517-2.442-15.178l-2.918.695ZM85.8 63.785a1.33 1.33 0 0 1-.494 1.16l1.873 2.343a4.33 4.33 0 0 0 1.609-3.773l-2.988.27Zm-.495 1.16c-1.793 1.437-3.904 2.185-6.118 2.185v3c2.915 0 5.684-.993 7.993-2.843l-1.875-2.341Zm-6.16 2.186.084 2.999-.084-3Z" fill="#fff"/></g></svg>