<svg width="40" height="31" fill="none" xmlns="http://www.w3.org/2000/svg"><mask id="a" style="mask-type:alpha" maskUnits="userSpaceOnUse" x="0" y="0" width="40" height="31"><path fill-rule="evenodd" clip-rule="evenodd" d="M0 30.29V.912h39.173V30.29H0Z" fill="#2CA0FF"/></mask><g mask="url(#a)"><path fill-rule="evenodd" clip-rule="evenodd" d="M19.586 13.969a3.246 3.246 0 0 1 3.264 3.264 3.246 3.246 0 0 1-3.264 3.264 3.246 3.246 0 0 1-3.265-3.264 3.246 3.246 0 0 1 3.265-3.264m0-2.449c-3.14 0-5.713 2.572-5.713 5.713 0 3.14 2.573 5.712 5.713 5.712s5.712-2.572 5.712-5.712c0-3.141-2.572-5.713-5.712-5.713Zm0-1.224a6.918 6.918 0 0 1 6.936 6.937 6.918 6.918 0 0 1-6.936 6.936 6.918 6.918 0 0 1-6.937-6.936 6.918 6.918 0 0 1 6.937-6.937m12.649-1.632a2.04 2.04 0 1 0 0 4.08 2.04 2.04 0 0 0 0-4.08m-12.65-.816c-5.168 0-9.384 4.216-9.384 9.385 0 5.168 4.216 9.385 9.385 9.385s9.385-4.216 9.385-9.385-4.216-9.385-9.385-9.385M4.08 6.624h31.011c.925 0 1.632.707 1.632 1.632v17.953c0 .926-.706 1.633-1.632 1.633H4.081a1.602 1.602 0 0 1-1.633-1.633V8.256c0-.925.707-1.632 1.632-1.632ZM7.345 3.36h4.896v.816H7.345v-.817ZM6.12.91c-.68.016-1.211.708-1.225 1.224v2.04H4.08C1.841 4.175 0 6.016 0 8.255V26.21c0 2.24 1.841 4.08 4.08 4.08h31.011c2.24 0 4.08-1.84 4.08-4.08V8.256c0-2.24-1.84-4.08-4.08-4.08H14.69v-2.04c0-.642-.583-1.225-1.224-1.225H6.121Z" fill="#2CA0FF"/></g></svg>