<svg width="31" height="32" fill="none" xmlns="http://www.w3.org/2000/svg"><mask id="a" style="mask-type:alpha" maskUnits="userSpaceOnUse" x="0" y="0" width="31" height="32"><path fill-rule="evenodd" clip-rule="evenodd" d="M0 31.4V.527h30.873V31.4H0Z" fill="#2CA0FF"/></mask><g mask="url(#a)"><path fill-rule="evenodd" clip-rule="evenodd" d="M15.438 28.281a12.25 12.25 0 0 1-7.166-2.308L25.449 8.794a12.247 12.247 0 0 1 2.309 7.167c0 6.793-5.527 12.319-12.32 12.319Zm0-24.639c2.752 0 5.296.908 7.35 2.439L5.557 23.31a12.256 12.256 0 0 1-2.44-7.35c0-6.792 5.527-12.319 12.32-12.319Zm0-3.119C6.926.523 0 7.45 0 15.962 0 24.474 6.926 31.4 15.438 31.4c8.513 0 15.439-6.926 15.439-15.438C30.877 7.449 23.95.523 15.438.523" fill="#2CA0FF"/></g></svg>