<svg xmlns="http://www.w3.org/2000/svg" viewBox="0 0 46 46" style="enable-background:new 0 0 46 46" xml:space="preserve"><path d="M35.9 12h-.8c.5-.7.8-1.6.8-2.6 0-2.9-2.3-5.2-5.2-5.2-1.9 0-3.6 1-4.5 2.6h-6.6c-.9-1.5-2.5-2.6-4.4-2.6-2.9 0-5.2 2.3-5.2 5.2 0 1 .3 1.9.7 2.6H10c-1.4 0-2.6 1.2-2.6 2.6v2.6c0 1.4 1.2 2.6 2.6 2.6v18.1c0 .7.3 1.3.8 1.8s1.1.8 1.8.8h20.7c.7 0 1.3-.3 1.8-.8s.8-1.1.8-1.8V19.7c1.4 0 2.6-1.2 2.6-2.6v-2.6c0-1.4-1.1-2.5-2.6-2.5zm-7.7-2.6v-.1c.1-1.4 1.2-2.5 2.6-2.5s2.6 1.2 2.6 2.6-1.1 2.5-2.5 2.6h-2.7V9.4zm-7.8 0h5.2V12h-5.2V9.4zm-5.2-2.6c1.4 0 2.5 1.1 2.6 2.5V12h-2.7c-1.4-.1-2.5-1.2-2.5-2.6.1-1.5 1.2-2.6 2.6-2.6zm2.6 31h-5.2V19.7h5.2v18.1zm7.8 0h-5.2V19.7h5.2v18.1zm7.7 0h-5.2V19.7h5.2v18.1zm2.6-20.7H10.1v-2.6H36l-.1 2.6z" style="fill:#2ca0ff"/></svg>