<svg version="1.1" id="Layer_1" xmlns="http://www.w3.org/2000/svg" x="0" y="0" viewBox="0 0 46 46" style="enable-background:new 0 0 46 46" xml:space="preserve"><style>.st0{fill:#2ca0ff}</style><path class="st0" d="M34.6 38H8.9c-.8 0-1.5-.7-1.5-1.5V10.8c0-.8.7-1.5 1.5-1.5h19.7c.8 0 1.5.7 1.5 1.5s-.7 1.5-1.5 1.5H10.4V35h22.7V21.1c0-.8.7-1.5 1.5-1.5s1.5.7 1.5 1.5v15.4c0 .8-.7 1.5-1.5 1.5z"/><path class="st0" d="M21.5 28.6c-.3 0-.6-.1-.9-.3L13 22.5c-.7-.5-.8-1.4-.3-2.1s1.4-.8 2.1-.3l6.6 5L40.3 5.8c.6-.6 1.5-.6 2.1 0s.6 1.5 0 2.1L22.6 28.2c-.3.3-.7.4-1.1.4z"/></svg>