<svg width="33" height="37" fill="none" xmlns="http://www.w3.org/2000/svg"><mask id="a" style="mask-type:alpha" maskUnits="userSpaceOnUse" x="1" y="1" width="31" height="36"><path fill-rule="evenodd" clip-rule="evenodd" d="M1 37V1h31v36H1Z" fill="#2CA0FF"/></mask><g mask="url(#a)"><path fill-rule="evenodd" clip-rule="evenodd" d="M11.336 5.65v2.586l-2.72-.004a2.587 2.587 0 1 1 2.716-2.715l.004.133Zm7.758 2.586h-5.172V5.65h5.172v2.586Zm2.586 0 2.72-.004a2.587 2.587 0 1 0-2.716-2.715l-.004.133v2.586Zm7.759 2.586H3.577v2.586H29.44v-2.586Zm-15.517 5.172h5.172v18.103h-5.172V15.994Zm-2.586 18.103H6.163V15.994h5.173v18.103ZM21.68 15.994h5.172v18.103H21.68V15.994Zm-1.893-12.93A5.173 5.173 0 0 1 29.44 5.65c0 1.02-.297 1.89-.809 2.586h.809a2.586 2.586 0 0 1 2.586 2.586v2.586a2.586 2.586 0 0 1-2.586 2.586v18.103a2.587 2.587 0 0 1-2.587 2.587H6.163a2.587 2.587 0 0 1-2.586-2.587V15.994a2.586 2.586 0 0 1-2.586-2.586v-2.586a2.586 2.586 0 0 1 2.586-2.586h.746a4.706 4.706 0 0 1-.746-2.586A5.174 5.174 0 0 1 8.75.478a5.048 5.048 0 0 1 4.42 2.586h6.617Z" fill="#2CA0FF"/></g></svg>