<svg width="43" height="43" fill="none" xmlns="http://www.w3.org/2000/svg"><mask id="a" style="mask-type:alpha" maskUnits="userSpaceOnUse" x="0" y="0" width="43" height="43"><path fill-rule="evenodd" clip-rule="evenodd" d="M0 42.771V.06h42.731v42.712H0Z" fill="#2CA0FF"/></mask><g mask="url(#a)" fill="#2CA0FF"><path fill-rule="evenodd" clip-rule="evenodd" d="M31.36 10.945a.71.71 0 0 0 .89.471l1.916-.59a2.142 2.142 0 0 1-4.185.545A2.14 2.14 0 0 1 32.024 8.6c.68-.001 1.319.32 1.723.866l-1.916.59a.711.711 0 0 0-.472.89v-.001ZM20.95 5.752H35.6a1.424 1.424 0 0 1 1.423 1.424v1.281l-1.876.578a3.533 3.533 0 1 0 .452 1.7c0-.116-.023-.226-.034-.34l1.458-.448V21.12L17.087 41.055 1.708 25.68 20.95 5.752Zm-4.366 36.815a.713.713 0 0 0 1.007 0L38.24 21.92a.712.712 0 0 0 .209-.503V9.509l.398-.123a3.429 3.429 0 0 0 2.245-4.363l-.328-.98A2.009 2.009 0 0 1 42.18 1.46.713.713 0 1 0 41.835.08a3.43 3.43 0 0 0-2.42 4.414l.328.983a2.007 2.007 0 0 1-1.296 2.54v-.841A2.849 2.849 0 0 0 35.6 4.328H20.648a.712.712 0 0 0-.513.213L.199 25.19a.712.712 0 0 0 .01.997l16.375 16.381Z"/><path d="m31.36 10.945.573-.176-.316-1.03-.71.811.452.395Zm.346.42.281-.53-.28.53Zm.543.051-.176-.573.176.573Zm1.917-.59.6.024.034-.847-.81.25.176.573Zm-.936 1.685-.337-.496.337.496Zm-1.912.25-.199.566.2-.566Zm-1.337-1.39.574-.177-.574.177Zm.323-1.9.483.355-.483-.356Zm1.72-.871v.6-.6Zm1.723.866.177.573.81-.25-.505-.68-.482.357Zm-1.916.59v.6h.09l.086-.027-.176-.574Zm0 0v-.6h-.09l-.087.025.176.574Zm-.42.346-.53-.28h-.001l.53.28Zm-.052.543-.573.177.316 1.029.709-.811-.452-.395ZM20.95 5.752v-.6h-.255l-.177.183.432.417Zm16.073 2.705.177.574.423-.13v-.444h-.6Zm-1.876.578-.523.294.237.422.463-.143-.177-.573Zm-2.741-1.787.057-.597-.057.597Zm-3.032 1.231.457.388-.457-.388Zm-.72 3.192-.58.155.58-.155Zm2.21 2.414-.205.564.205-.564Zm3.243-.437-.347-.49.347.49Zm1.492-2.912H35v.004l.6-.005Zm-.034-.34-.176-.574-.468.143.047.487.597-.057Zm1.458-.45h.6v-.812l-.776.24.176.573Zm0 11.175.425.424.175-.176v-.248h-.6ZM17.087 41.055l-.424.425.424.424.425-.424-.425-.425ZM1.708 25.68l-.431-.417-.41.424.417.417.424-.424Zm14.876 16.888-.424.424.424-.424Zm1.007 0 .424.425-.424-.425ZM38.447 9.51l-.176-.574-.424.13v.444h.6Zm.398-.123-.176-.573.177.573Zm2.043-1.708.533.274-.533-.274Zm.203-2.655.57-.19-.001-.001-.569.19Zm-.328-.98-.57.19.57-.19Zm.145-1.6.526.289-.526-.29Zm1.272-.982-.133-.585-.013.003.146.582Zm.45-.32-.51-.316h-.001l.51.315Zm.084-.547-.582.145.582-.145Zm-.331-.442-.304.518h.002l.302-.518ZM41.835.08l.146.582.012-.003-.158-.58ZM39.66 1.758l.527.289-.526-.289Zm-.246 2.736-.569.19.57-.19Zm.329.983.57-.189-.001-.002-.57.19Zm-.117 1.54.534.273-.534-.272Zm-1.178 1h-.6v.82l.782-.248-.183-.572Zm-.834-2.855.424-.424-.424.424Zm-16.966-.834-.004.6h.004v-.6Zm-.513.213-.428-.42-.004.004.432.416ZM.199 25.19l-.432-.417v.001l.432.416Zm.01.997-.425.424.424-.424Zm30.576-15.065c.103.333.333.611.64.774l.562-1.06a.11.11 0 0 1-.054-.066l-1.148.352Zm.64.774c.308.163.668.197 1.001.095l-.354-1.147a.112.112 0 0 1-.085-.008l-.562 1.06Zm1 .095 1.918-.59-.353-1.148-1.917.59.353 1.147Zm1.142-1.188c-.02.488-.27.939-.674 1.213l.674.993a2.742 2.742 0 0 0 1.199-2.158l-1.199-.048Zm-.674 1.213a1.541 1.541 0 0 1-1.376.18l-.397 1.132c.82.287 1.728.17 2.447-.32l-.674-.992Zm-1.376.18a1.542 1.542 0 0 1-.962-1l-1.147.353a2.741 2.741 0 0 0 1.711 1.779l.398-1.132Zm-.962-1a1.54 1.54 0 0 1 .232-1.369l-.966-.712c-.516.7-.67 1.603-.413 2.434l1.147-.354Zm.232-1.369a1.54 1.54 0 0 1 1.238-.626L32.023 8a2.74 2.74 0 0 0-2.202 1.114l.966.712Zm1.238-.626c.489-.001.949.23 1.24.623l.964-.715A2.742 2.742 0 0 0 32.023 8l.002 1.2Zm1.546-.308-1.917.59.353 1.147 1.917-.59-.353-1.147Zm-1.74.563v1.2-1.2Zm-.177.026a1.31 1.31 0 0 0-.774.64l1.06.562a.11.11 0 0 1 .066-.054l-.352-1.148Zm-.774.64a1.313 1.313 0 0 0-.094 1l1.146-.352a.113.113 0 0 1 .009-.086l-1.061-.562Zm.931 1.219-.904-.79.904.79Zm-10.86-4.988h14.648v-1.2H20.95v1.2Zm14.648 0c.219 0 .429.086.583.24l.849-.848a2.024 2.024 0 0 0-1.432-.592v1.2Zm.583.24a.824.824 0 0 1 .241.584h1.2c0-.537-.213-1.052-.592-1.432l-.849.849Zm.241.584v1.281h1.2V7.176h-1.2Zm.424.708-1.876.577.353 1.147 1.876-.577-.353-1.147Zm-1.177.857a4.133 4.133 0 0 0-3.207-2.09l-.115 1.194a2.933 2.933 0 0 1 2.276 1.484l1.046-.588Zm-3.207-2.09a4.133 4.133 0 0 0-3.547 1.44l.915.776a2.933 2.933 0 0 1 2.517-1.022l.115-1.194Zm-3.547 1.44a4.131 4.131 0 0 0-.842 3.735l1.16-.309a2.932 2.932 0 0 1 .597-2.65l-.915-.776Zm-.842 3.735a4.133 4.133 0 0 0 2.585 2.823l.41-1.129a2.933 2.933 0 0 1-1.836-2.003l-1.16.309Zm2.585 2.823c1.272.46 2.69.27 3.794-.511l-.693-.98c-.784.554-1.79.69-2.692.362l-.409 1.129Zm3.794-.511A4.132 4.132 0 0 0 36.2 10.73l-1.2.01a2.932 2.932 0 0 1-1.239 2.417l.693.98Zm1.746-3.402c0-.098-.01-.184-.018-.248l-.019-.15-1.194.114c.006.07.018.152.023.189a.753.753 0 0 1 .008.095h1.2Zm-.458.233 1.459-.449-.353-1.147-1.458.449.352 1.147Zm.682-1.022V21.12h1.2V9.947h-1.2Zm.176 10.75L16.663 40.631l.849.849 19.936-19.936-.849-.849ZM17.512 40.631 2.132 25.255l-.848.848 15.38 15.378.848-.849ZM2.14 26.096 21.382 6.168l-.864-.833L1.277 25.262l.863.834Zm14.02 16.896a1.312 1.312 0 0 0 1.855 0l-.848-.85a.113.113 0 0 1-.159 0l-.848.85Zm1.855 0 20.648-20.648-.848-.849-20.648 20.648.848.848Zm20.648-20.648c.246-.247.385-.58.385-.928h-1.2c0 .03-.012.058-.033.079l.848.848Zm.385-.928V9.509h-1.2v11.907h1.2Zm-.424-11.334.398-.122-.353-1.147-.398.122.353 1.147Zm.398-.122a4.029 4.029 0 0 0 2.4-2.008l-1.068-.549a2.829 2.829 0 0 1-1.685 1.41l.353 1.147Zm2.4-2.008c.496-.965.582-2.09.238-3.12l-1.138.38a2.828 2.828 0 0 1-.168 2.191l1.067.55Zm.238-3.12-.328-.98-1.138.382.328.98 1.138-.382Zm-.328-.979a1.408 1.408 0 0 1 .102-1.121l-1.052-.578a2.609 2.609 0 0 0-.188 2.078l1.138-.379Zm.102-1.122c.188-.343.511-.593.891-.688L42.035.88a2.606 2.606 0 0 0-1.653 1.275l1.052.577Zm.878-.684c.344-.078.643-.291.828-.592L42.12.825a.113.113 0 0 1-.072.051l.265 1.17Zm.828-.591c.186-.301.242-.665.157-1.007l-1.165.29c.008.03.003.06-.013.086l1.02.63Zm.157-1.007a1.311 1.311 0 0 0-.612-.815L42.081.67c.025.015.044.04.051.07l1.165-.291Zm-.61-.814a1.311 1.311 0 0 0-1.01-.134L41.993.66a.111.111 0 0 1 .086.01l.608-1.034Zm-.997-.137a4.03 4.03 0 0 0-2.556 1.972l1.053.577A2.83 2.83 0 0 1 41.98.662L41.69-.502ZM39.134 1.47a4.031 4.031 0 0 0-.289 3.214l1.139-.38a2.83 2.83 0 0 1 .203-2.257l-1.053-.577Zm-.289 3.214.329.983 1.138-.38-.329-.983-1.138.38Zm.328.981c.118.357.089.746-.082 1.08l1.07.545c.315-.62.37-1.341.151-2.002l-1.139.377Zm-.082 1.08c-.17.334-.468.587-.825.7l.364 1.144a2.606 2.606 0 0 0 1.53-1.299l-1.069-.545Zm-.044 1.272v-.841h-1.2v.841h1.2Zm0-.841a3.45 3.45 0 0 0-1.01-2.438l-.848.848c.422.422.658.994.658 1.59h1.2Zm-1.01-2.439a3.45 3.45 0 0 0-2.438-1.01v1.2a2.25 2.25 0 0 1 1.59.66l.849-.85ZM35.6 3.727H20.648v1.2h14.951v-1.2Zm-14.947 0a1.312 1.312 0 0 0-.945.394l.856.84a.112.112 0 0 1 .08-.033l.009-1.2Zm-.949.398L-.233 24.772l.864.834L20.567 4.958l-.864-.833ZM-.233 24.773a1.312 1.312 0 0 0 .017 1.837l.849-.848a.112.112 0 0 1-.002-.157l-.864-.832Zm.017 1.837L16.16 42.991l.849-.848L.633 25.762l-.85.848Z"/></g><path d="M15.58 24.938c-.755.754-1.613 1.084-2.574.99-.952-.104-1.857-.584-2.716-1.442-.839-.84-1.291-1.735-1.357-2.687-.066-.953.264-1.792.99-2.518.726-.726 1.565-1.056 2.517-.99.952.066 1.848.519 2.687 1.358.849.848 1.325 1.758 1.428 2.73.095.961-.23 1.814-.975 2.56Zm-1.23-1.23c.31-.311.41-.693.296-1.146-.122-.462-.443-.952-.961-1.47-.51-.51-.986-.807-1.429-.891-.433-.095-.801.009-1.103.31-.302.302-.41.675-.325 1.118.094.434.396.905.905 1.414 1.094 1.094 1.966 1.315 2.616.665Zm1.428-9.886 1.4-1.4 4.073 15.726-1.415 1.415-4.058-15.74Zm11.3 8.896c-.755.754-1.613 1.084-2.575.99-.952-.104-1.857-.585-2.715-1.443-.839-.839-1.291-1.735-1.358-2.687-.066-.952.264-1.791.99-2.517s1.565-1.056 2.518-.99c.952.066 1.848.519 2.687 1.358.848.848 1.324 1.758 1.428 2.73.094.96-.23 1.814-.976 2.559Zm-1.231-1.23c.311-.312.41-.694.297-1.146-.123-.462-.443-.952-.962-1.47-.509-.51-.985-.807-1.428-.892-.434-.094-.802.01-1.103.311-.302.302-.41.674-.325 1.118.094.433.395.905.905 1.414 1.093 1.093 1.965 1.315 2.616.665Z" fill="#2CA0FF"/></svg>