<svg xmlns="http://www.w3.org/2000/svg" viewBox="0 0 46 46" style="enable-background:new 0 0 46 46" xml:space="preserve"><path d="M23 21.3c1.8 0 3.3 1.4 3.3 3.3 0 1.8-1.4 3.3-3.3 3.3-1.8 0-3.3-1.4-3.3-3.3s1.5-3.3 3.3-3.3m0-2.5c-3.1 0-5.7 2.6-5.7 5.7s2.6 5.7 5.7 5.7 5.7-2.6 5.7-5.7-2.6-5.7-5.7-5.7zm0-1.2c3.8 0 6.9 3.1 6.9 6.9s-3.1 6.9-6.9 6.9-6.9-3.1-6.9-6.9 3.1-6.9 6.9-6.9M35.6 16c-1.1 0-2 .9-2 2s.9 2 2 2 2-.9 2-2c.1-1.1-.8-2-2-2M23 15.1c-5.2 0-9.4 4.2-9.4 9.4s4.2 9.4 9.4 9.4 9.4-4.2 9.4-9.4c0-5.1-4.2-9.4-9.4-9.4M7.5 13.9h31c.9 0 1.6.7 1.6 1.6v18c0 .9-.7 1.6-1.6 1.6h-31c-.9 0-1.6-.7-1.6-1.6v-18c0-.9.7-1.6 1.6-1.6zm3.3-3.2h4.9v.8h-4.9v-.8zM9.5 8.2c-.7 0-1.2.7-1.2 1.2v2h-.8c-2.2 0-4.1 1.8-4.1 4.1v18c0 2.2 1.8 4.1 4.1 4.1h31c2.2 0 4.1-1.8 4.1-4.1v-18c0-2.2-1.8-4.1-4.1-4.1H18.1v-2c0-.6-.6-1.2-1.2-1.2H9.5z" style="fill:#2ca0ff"/></svg>