<svg version="1.1" id="Layer_1" xmlns="http://www.w3.org/2000/svg" x="0" y="0" viewBox="0 0 46 46" style="enable-background:new 0 0 46 46" xml:space="preserve"><style>.st0{fill:#2ca0ff}</style><path class="st0" d="M44.6 3c.2-.3.2-.7.2-1-.1-.3-.3-.6-.6-.8-.3-.2-.7-.2-1-.1-1.1.3-2 1-2.5 2-1 1.7-.4 3.1-.4 3.1l.3 1c.1.4.1.7-.1 1.1l-.1.1c-.1-.8-.4-1.5-1-2.1-.6-.6-1.5-1-2.4-1H22c-.4 0-.7.1-.9.4l.1-.1L1.3 26.3c-.5.5-.5 1.3 0 1.8l16.4 16.4c.5.5 1.3.5 1.9 0l20.6-20.6c.2-.2.4-.6.4-.9V11.4c2-.6 2.5-2 2.5-2 .5-1 .6-2.1.2-3.1l-.3-1c-.1-.4-.1-.8.1-1.1.2-.3.5-.6.9-.7.2 0 .5-.2.6-.5zM32.8 14.3zm.7-3.6c.1 0 .3 0 .4.1l-.7.2h-.1c-.3.1-.6.3-.8.6-.2.3-.2.7-.1 1l.2.8c-.2-.2-.4-.4-.5-.7-.1-.5-.1-1 .2-1.4 0 0 .4-.7 1.4-.6zm.9 2.8c-.4.3-.9.3-1.4.2-.1 0-.2-.1-.3-.2l.2-.2h.1c.3.2.7.2 1 .1l.8-.2c-.2.2-.3.2-.4.3zm1.3-1.2zM30.9 10zm6.2 2.2zm.8-2.7-1 .3c-.7-.9-1.8-1.6-2.9-1.7-1.3-.1-2.7.4-3.5 1.4-.9 1-1.2 2.4-.8 3.7v-.1c.3 1.3 1.3 2.4 2.6 2.8 1.3.5 2.7.3 3.8-.5s1.7-2 1.7-3.3l.2-.1v10.1L18.6 41.7 4 27.2 22.7 7.9h14.4c.2 0 .4.1.6.2.2.2.2.4.2.6v.8zM22.5 7.3zM39.9 11zm4-9.3zm-.6-.1zm-1 3.9zM43.7 3zm.4-.4z"/><path class="st0" d="M17.1 28.4c-.8.8-1.6 1.1-2.6 1s-1.9-.6-2.7-1.4-1.3-1.7-1.4-2.7c-.1-1 .3-1.8 1-2.5s1.6-1.1 2.5-1c1 .1 1.8.5 2.7 1.4.8.8 1.3 1.8 1.4 2.7.1.9-.2 1.8-.9 2.5zm-1.3-1.2c.3-.3.4-.7.3-1.1-.1-.5-.4-1-1-1.5-.5-.5-1-.8-1.4-.9s-.8 0-1.1.3-.4.7-.3 1.1c.1.4.4.9.9 1.4 1.1 1.1 2 1.4 2.6.7zm1.5-9.9 1.4-1.4 4.1 15.7-1.4 1.4-4.1-15.7zm11.3 8.9c-.8.8-1.6 1.1-2.6 1s-1.9-.6-2.7-1.4c-.8-.8-1.3-1.7-1.4-2.7s.3-1.8 1-2.5 1.6-1.1 2.5-1 1.8.5 2.7 1.4c.8.8 1.3 1.8 1.4 2.7.1.9-.2 1.8-.9 2.5zM27.3 25c.3-.3.4-.7.3-1.1-.1-.5-.4-1-1-1.5-.5-.5-1-.8-1.4-.9s-.8 0-1.1.3c-.3.3-.4.7-.3 1.1s.4.9.9 1.4c1.1 1.1 2 1.3 2.6.7z"/></svg>