<svg width="168" height="167" fill="none" xmlns="http://www.w3.org/2000/svg"><mask id="a" style="mask-type:alpha" maskUnits="userSpaceOnUse" x="0" y="0" width="168" height="167"><path fill-rule="evenodd" clip-rule="evenodd" d="M.643 166.482V.206h166.71v166.276H.643Z" fill="#fff"/></mask><g mask="url(#a)" fill="#fff"><path fill-rule="evenodd" clip-rule="evenodd" d="M145.477 148.926H98.204v-77.54h47.273v77.54ZM86.505 61.164c3.154-14.21 9.352-34.076 15.858-39.017 9.427-7.163 22.926-5.322 30.089 4.105a21.366 21.366 0 0 1 4.18 15.9c-.78 5.685-3.721 10.72-8.285 14.196-6.507 4.94-27.312 5.596-41.844 4.816h.002Zm2.764 87.762H72.26v-77.54h17.008v77.54ZM33.853 56.341a21.343 21.343 0 0 1-8.292-14.189 21.36 21.36 0 0 1 4.18-15.9 21.308 21.308 0 0 1 14.19-8.285c.985-.136 1.97-.198 2.95-.198 4.658 0 9.173 1.512 12.944 4.379 6.506 4.94 12.71 24.806 15.858 39.016-14.52.78-35.326.123-41.829-4.824h-.001Zm29.473 92.585H16.052v-77.54h47.274v77.54Zm86.618-86.475h-14.99c5.768-4.857 9.503-11.562 10.529-19.088 1.095-8.046-1.005-16.043-5.918-22.508C129.42 7.5 110.304 4.9 96.951 15.04c-7.094 5.391-12.439 19.409-15.858 31.203C77.67 34.448 72.328 20.43 65.234 15.04 58.77 10.114 50.78 8.014 42.726 9.115c-8.045 1.095-15.188 5.262-20.1 11.734-4.912 6.464-7.012 14.462-5.918 22.508 1.027 7.526 4.762 14.231 10.53 19.089l-15.654-.002a4.465 4.465 0 0 0-4.468 4.468v86.475a4.464 4.464 0 0 0 4.468 4.468h138.361a4.465 4.465 0 0 0 4.468-4.468l-.002-86.469a4.465 4.465 0 0 0-4.468-4.468l.001.001Z"/><path d="M145.477 148.926v1.5h1.5v-1.5h-1.5Zm-47.273 0h-1.5v1.5h1.5v-1.5Zm0-77.54v-1.5h-1.5v1.5h1.5Zm47.273 0h1.5v-1.5h-1.5v1.5ZM86.505 61.163l.339 1.461.92-.214.205-.922-1.464-.325Zm15.858-39.017.907 1.195h.001l-.908-1.195Zm30.089 4.105 1.195-.907h-.001l-1.194.907Zm4.18 15.9 1.486.203.001-.001-1.487-.202Zm-8.285 14.196.907 1.195.002-.002-.909-1.193Zm-41.844 4.816-.339-1.461.26 2.96.08-1.499Zm2.766 87.762v1.5h1.5v-1.5h-1.5Zm-17.009 0h-1.5v1.5h1.5v-1.5Zm0-77.54v-1.5h-1.5v1.5h1.5Zm17.008 0h1.5v-1.5h-1.5v1.5ZM33.854 56.34l-.907 1.195.542.41.666-.136-.301-1.47ZM25.56 42.152l-1.487.202v.002l1.487-.204Zm4.18-15.9 1.195.908-1.195-.907Zm14.19-8.285.202 1.486h.003l-.205-1.486Zm15.894 4.18-.908 1.195.907-1.194Zm15.858 39.017.08 1.498 1.767-.094-.383-1.728-1.464.324ZM33.854 56.34l.908-1.194-.542-.412-.667.137.301 1.47Zm29.472 92.586v1.5h1.5v-1.5h-1.5Zm-47.274 0h-1.5v1.5h1.5v-1.5Zm0-77.54v-1.5h-1.5v1.5h1.5Zm47.274 0h1.5v-1.5h-1.5v1.5Zm86.618-8.935v1.5h3.6l-2.534-2.556-1.066 1.056Zm-14.99 0-.966-1.147-3.144 2.647h4.11v-1.5Zm10.529-19.088 1.486.203h.001l-1.487-.203Zm-5.918-22.508-1.194.907 1.194-.907ZM96.951 15.04l-.907-1.195.907 1.195ZM81.093 46.243l-1.441.418 1.44 4.967 1.441-4.968-1.44-.417ZM65.234 15.04l-.909 1.193.002.001.907-1.194ZM42.726 9.115l.202 1.486h.001l-.203-1.486Zm-20.1 11.734 1.195.908v-.001l-1.195-.907Zm-5.918 22.508-1.486.203 1.486-.203Zm10.53 19.089v1.5h4.11l-3.144-2.648-.967 1.148Zm-15.654-.002v-1.5 1.5Zm142.829 90.943h1.5-1.5Zm-.002-86.469h-1.5 1.5Zm-4.468-4.468v-1.5h-3.599l2.534 2.556 1.065-1.056Zm-4.466 84.976H98.204v3h47.273v-3Zm-45.773 1.5v-77.54h-3v77.54h3Zm-1.5-76.04h47.273v-3H98.204v3Zm45.773-1.5v77.54h3v-77.54h-3Zm-56.008-9.897c1.567-7.057 3.887-15.506 6.613-22.783 1.363-3.64 2.817-6.956 4.313-9.648 1.514-2.723 3-4.672 4.375-5.716l-1.814-2.39c-1.877 1.426-3.607 3.814-5.183 6.649-1.594 2.867-3.107 6.332-4.5 10.052-2.789 7.443-5.145 16.033-6.733 23.186l2.93.65Zm15.302-38.147c8.767-6.662 21.325-4.95 27.986 3.818l2.389-1.816c-7.664-10.086-22.104-12.055-32.19-4.391l1.815 2.389Zm27.986 3.817a19.864 19.864 0 0 1 3.889 14.79l2.973.405a22.869 22.869 0 0 0-4.472-17.009l-2.39 1.814Zm3.889 14.789c-.726 5.291-3.459 9.97-7.708 13.207l1.818 2.386c4.879-3.716 8.028-9.106 8.862-15.185l-2.972-.408Zm-7.706 13.205c-1.376 1.045-3.653 1.954-6.683 2.683-2.995.72-6.58 1.233-10.453 1.57-7.743.677-16.504.648-23.72.26l-.16 2.996c7.315.393 16.222.425 24.141-.267 3.959-.345 7.703-.875 10.893-1.642 3.155-.76 5.919-1.785 7.796-3.21l-1.814-2.39Zm-40.597 7.472-.677-2.922h-.002l.679 2.922Zm2.425 84.801H72.26v3h17.008v-3Zm-15.508 1.5v-77.54h-3v77.54h3Zm-1.5-76.04h17.008v-3H72.26v3Zm15.508-1.5v77.54h3v-77.54h-3ZM34.76 55.145a19.843 19.843 0 0 1-7.713-13.198l-2.973.408a22.843 22.843 0 0 0 8.872 15.18l1.814-2.39ZM27.047 41.95a19.86 19.86 0 0 1 3.889-14.79l-2.39-1.814a22.86 22.86 0 0 0-4.472 17.008l2.973-.404Zm3.889-14.79a19.808 19.808 0 0 1 13.197-7.707l-.405-2.972a22.808 22.808 0 0 0-15.182 8.865l2.39 1.813Zm13.2-7.707a20.006 20.006 0 0 1 2.744-.184v-3c-1.042 0-2.097.066-3.155.212l.411 2.972Zm2.744-.184c4.33 0 8.527 1.404 12.037 4.073l1.815-2.388a22.805 22.805 0 0 0-13.852-4.685v3Zm12.037 4.073c1.376 1.045 2.862 2.993 4.377 5.717 1.497 2.691 2.95 6.007 4.315 9.647 2.727 7.278 5.046 15.726 6.61 22.783l2.928-.649c-1.584-7.153-3.94-15.743-6.729-23.187-1.394-3.72-2.908-7.185-4.502-10.052-1.577-2.835-3.307-5.223-5.184-6.648l-1.815 2.39Zm16.686 36.325c-7.21.386-15.969.416-23.71-.262-3.871-.339-7.456-.851-10.45-1.573-3.03-.73-5.305-1.64-6.68-2.685l-1.817 2.387c1.876 1.428 4.64 2.455 7.794 3.215 3.19.768 6.934 1.298 10.892 1.645 7.917.693 16.822.66 24.131.268l-.16-2.995Zm-42.05-4.796h-.001l.602 2.94.001-.001-.602-2.94Zm29.773 92.555H16.052v3h47.274v-3Zm-45.774 1.5v-77.54h-3v77.54h3Zm-1.5-76.04h47.274v-3H16.052v3Zm45.774-1.5v77.54h3v-77.54h-3Zm88.118-10.435h-14.99v3h14.99v-3ZM135.92 63.6c6.05-5.095 9.972-12.135 11.049-20.033l-2.972-.406c-.975 7.154-4.522 13.523-10.009 18.144l1.932 2.294Zm11.05-20.034c1.148-8.44-1.057-16.835-6.21-23.618l-2.389 1.815c4.671 6.149 6.667 13.746 5.626 21.399l2.973.404Zm-6.21-23.618c-10.648-14.015-30.704-16.742-44.716-6.102l1.814 2.39c12.694-9.64 30.869-7.167 40.513 5.527l2.389-1.815Zm-44.717-6.101c-3.847 2.923-7.082 8.052-9.757 13.757-2.697 5.751-4.913 12.286-6.634 18.222l2.881.835c1.699-5.858 3.865-12.229 6.469-17.783 2.625-5.6 5.609-10.175 8.856-12.643l-1.815-2.388Zm-13.51 31.979c-1.722-5.936-3.938-12.471-6.634-18.222-2.675-5.706-5.91-10.834-9.757-13.758l-1.815 2.39c3.247 2.467 6.23 7.042 8.856 12.642 2.604 5.554 4.77 11.925 6.469 17.784l2.881-.836Zm-16.39-31.978c-6.782-5.169-15.173-7.373-23.62-6.218l.406 2.972c7.659-1.047 15.25.948 21.396 5.632l1.818-2.386Zm-23.62-6.218c-8.439 1.148-15.94 5.523-21.092 12.313l2.39 1.814C28.491 15.6 35.278 11.642 42.928 10.6l-.404-2.972Zm-21.09 12.313c-5.154 6.78-7.36 15.178-6.21 23.617l2.972-.404c-1.042-7.653.954-15.251 5.626-21.398l-2.389-1.816Zm-6.21 23.618c1.076 7.899 4.999 14.938 11.048 20.033l1.933-2.295c-5.487-4.62-9.034-10.99-10.01-18.143l-2.972.405Zm12.014 17.386-15.653-.002v3l15.653.002v-3Zm-15.653-.002a5.965 5.965 0 0 0-5.968 5.968h3a2.965 2.965 0 0 1 2.968-2.968v-3Zm-5.968 5.968v86.475h3V66.912h-3Zm0 86.475a5.965 5.965 0 0 0 5.968 5.968v-3a2.965 2.965 0 0 1-2.968-2.968h-3Zm5.968 5.968h138.361v-3H11.585v3Zm138.361 0a5.965 5.965 0 0 0 5.968-5.968h-3a2.965 2.965 0 0 1-2.968 2.968v3Zm5.968-5.968-.002-86.469h-3l.002 86.469h3Zm-.002-86.469a5.964 5.964 0 0 0-5.968-5.968v3a2.965 2.965 0 0 1 2.968 2.968h3Zm-7.033-3.412.001.001 2.131-2.112h-.001l-2.131 2.111Z"/></g></svg>