<svg width="138" height="137" fill="none" xmlns="http://www.w3.org/2000/svg"><mask id="a" style="mask-type:alpha" maskUnits="userSpaceOnUse" x="0" y="0" width="138" height="137"><path fill-rule="evenodd" clip-rule="evenodd" d="M.699 136.904V.296h136.603v136.608H.699Z" fill="#fff"/></mask><g mask="url(#a)" fill-rule="evenodd" clip-rule="evenodd" fill="#fff"><path d="M68.999 122.058c-29.521 0-53.455-23.935-53.455-53.458 0-29.524 23.932-53.458 53.455-53.458 29.529 0 53.457 23.933 53.457 53.458 0 29.524-23.93 53.458-53.457 53.458Zm0-121.765C31.279.293.694 30.877.694 68.6c0 37.725 30.585 68.307 68.305 68.307 37.725 0 68.307-30.582 68.307-68.307 0-37.723-30.582-68.307-68.307-68.307Z"/><path d="M58.857 52.059c0 5.467-4.432 9.9-9.9 9.9-5.467 0-9.9-4.433-9.9-9.9 0-5.468 4.433-9.9 9.9-9.9 5.468 0 9.9 4.432 9.9 9.9M98.944 52.059c0 5.467-4.432 9.9-9.9 9.9-5.467 0-9.9-4.433-9.9-9.9 0-5.468 4.433-9.9 9.9-9.9 5.468 0 9.9 4.432 9.9 9.9M69 73.388c-13.957 0-26.664 6.595-33.164 17.214a6.68 6.68 0 0 0 2.214 9.185 6.686 6.686 0 0 0 9.188-2.211C51.264 90.999 59.804 86.75 69 86.75c9.192 0 17.733 4.248 21.758 10.826a6.678 6.678 0 0 0 9.188 2.212 6.679 6.679 0 0 0 2.213-9.186C95.662 79.984 82.955 73.388 69 73.388Z"/></g></svg>