<svg width="304" height="122" fill="none" xmlns="http://www.w3.org/2000/svg"><mask id="a" style="mask-type:alpha" maskUnits="userSpaceOnUse" x="0" y="0" width="304" height="122"><path fill-rule="evenodd" clip-rule="evenodd" d="M.914 121.777V.082h302.17v121.695H.914Z" fill="#fff"/></mask><g mask="url(#a)"><mask id="b" style="mask-type:alpha" maskUnits="userSpaceOnUse" x="0" y="0" width="304" height="122"><path fill-rule="evenodd" clip-rule="evenodd" d="M.914 121.777V.082h302.17v121.695H.914Z" fill="#fff"/></mask><g style="mix-blend-mode:multiply" opacity=".2" mask="url(#b)"><mask id="c" style="mask-type:alpha" maskUnits="userSpaceOnUse" x="65" y="72" width="143" height="39"><path fill-rule="evenodd" clip-rule="evenodd" d="M65.117 110.649V72.303h142.164v38.346H65.117Z" fill="#fff"/></mask><g mask="url(#c)" fill-rule="evenodd" clip-rule="evenodd" fill="#000"><path d="M161.255 105.595c-5.859 0-9.981-4.018-10.026-9.772l1.352-.01c.038 5.042 3.524 8.429 8.674 8.429 5.057 0 8.589-2.992 8.589-7.276 0-5.356-3.535-6.75-9.304-8.582-2.282-.675-6.123-1.81-6.123-6.045 0-3.43 2.645-5.736 6.583-5.736 4.42 0 7.391 2.955 7.391 7.352h-1.352c0-3.701-2.314-6-6.039-6-3.178 0-5.232 1.72-5.232 4.384 0 2.983 2.34 3.917 5.168 4.752 5.283 1.677 10.259 3.258 10.259 9.876 0 4.999-4.18 8.628-9.94 8.628M112.546 104.518l-.143-1.344a12.738 12.738 0 0 0 11.402-12.698c0-7.042-5.728-12.77-12.77-12.77s-12.77 5.728-12.77 12.77c0 6.315 4.518 11.618 10.743 12.61l-.212 1.335c-6.886-1.096-11.884-6.962-11.884-13.945 0-7.787 6.335-14.122 14.123-14.122 7.787 0 14.122 6.335 14.122 14.122 0 7.24-5.422 13.277-12.611 14.042M188.056 104.518l-.143-1.344a12.736 12.736 0 0 0 11.398-12.698c0-7.042-5.726-12.77-12.765-12.77-7.039 0-12.766 5.728-12.766 12.77 0 6.315 4.517 11.618 10.74 12.61l-.212 1.335c-6.884-1.096-11.88-6.962-11.88-13.945 0-7.787 6.333-14.122 14.118-14.122 7.784 0 14.117 6.335 14.117 14.122 0 7.24-5.42 13.277-12.607 14.042M85.854 104.598c-7.785 0-14.119-6.335-14.119-14.122 0-7.788 6.334-14.123 14.119-14.123 3.454 0 6.78 1.263 9.363 3.556l-.896 1.012a12.745 12.745 0 0 0-8.467-3.216c-7.04 0-12.767 5.729-12.767 12.77 0 7.042 5.727 12.771 12.767 12.771a12.75 12.75 0 0 0 8.467-3.215l.896 1.011a14.092 14.092 0 0 1-9.363 3.556M147.222 106.338l-16.368-26.892v24.481h-1.352V74.625l16.368 26.891V78.154h1.352v28.184Z"/><path d="M207.282 110.649H69.093v-1.352H205.93V73.655H66.468v36.318h-1.351v-37.67h142.165v38.346Z"/></g></g><mask id="d" style="mask-type:alpha" maskUnits="userSpaceOnUse" x="39" y="20" width="202" height="38"><path fill-rule="evenodd" clip-rule="evenodd" d="m99.79 27.427.498.636h-1.255v1.734a483.178 483.178 0 0 0-3.691-4.195l-.063-.07-16.792-.806-.096-.005-.07.066c-6.597 6.242-8.153 7.778-8.465 8.247l-.023-.02a14.82 14.82 0 0 0-3.406 9.468l-4.235 3.634L51 40.889l-1.992-2.206c1.146-2.257 3.26-3.6 5.681-3.6 2.34 0 4.2 1 6.03 3.243l.152.186 12.917-11.97-2.641-2.14-19.105-.227h-.091l-.067.063c-7.041 6.72-8.673 8.33-8.993 8.812l-.026-.021c-2.122 2.651-3.243 5.92-3.243 9.453v.081c0 8.498 6.39 14.907 14.865 14.907 5.532 0 9.453-2.005 12.686-6.47l1.168-1.11c2.696 4.752 7.742 7.58 13.56 7.58 3.356 0 6.523-.965 9.188-2.813l7.944-7.538v9.783h8.237v-.19l6.738-7.046 5.086 7.236h7.042a.228.228 0 0 0 .056 0h.097v-.037c.107-.072.485-.417 2.656-2.599 3.192 2.044 7.086 3.123 11.273 3.123 3.443 0 6.34-.848 8.405-2.457l.018.046.242-.256c.512-.429.967-.909 1.336-1.407l3.08-3.25-.046 6.837h22.73l.798-.007 1.739-1.821v1.828l7.878-.001.749-.077v-.147c.197-.28 1.437-1.636 2.403-2.675v2.9h21.617l2.396-2.086c3.007 1.684 6.585 2.573 10.359 2.573 3.035 0 5.694-.673 7.689-1.947l.027-.019c1.126-.724 2.031-1.632 2.694-2.7l5.968-5.98-1.902-.936-2.814 1.207a8.207 8.207 0 0 0-.251-1.437.435.435 0 0 0 .265-.216c.131-.246.483-.72.855-1.222 1.215-1.637 1.759-2.451 1.5-2.84-.3-.45-2.367-3.506-2.367-3.506l-2.488-3.668 1.381-1.951.549-.37 2.715-1.628.019-.101c.345-1.908.653-4.248.151-4.563-.492-.31-5.477-1.72-6.044-1.88l-10.041-.21-8.819 8.812-.034.043c-.823 1.361-1.241 2.912-1.241 4.609v.08c0 5.178 3.654 7.159 8.207 8.435-1.375-.09-2.375-.145-2.39-.146l-.087-.004-2.194 1.789c-.657-.444-.828-.483-.936-.483h-3.905l-.088.017c-.281.12-2.758 1.183-3.226 1.65-.195.197-.225.601-.089 1.333h-9.158v-18.04l1.598-1.962-2.703-8.269-7.579 7.262.366.39v19.499l-2.713-.52V31.49c2.338-1.147 2.39-1.333 2.43-1.47.081-.284-1.038-3.115-3.325-8.413l-.125-.29-4.929 4.53c-1.416-1.166-1.768-1.388-1.908-1.451-.573-.26-4.651-.063-5.463-.02l-.119.006-1.615 2.66-.95-.947-5.226-3.807c-.548-.712-3.94-.92-4.985-.966l-.094-.005-7.22 6.662c-1.371-3.509-1.49-3.628-1.549-3.688-.078-.077-.26-.26-13.135-1.217l-.099-.008-7.481 7.004c-.375-.614-.701-3.592-.882-5.247-.316-2.889-.388-3.225-.7-3.263a.256.256 0 0 0-.241.099l-3.913-.372-7.089 6.787-.167.033v.132l-1.158 1.158-10.517-8.278-.157-.124-6.43 6.432Z" fill="#fff"/></mask><g mask="url(#d)" fill-rule="evenodd" clip-rule="evenodd"><path d="m97.48 58.581 8.923-8.805V19.59l-7.782 8.332-1.141 30.66ZM125.212 20.681S117.2 28.175 117 28.575l8.212 8.81V20.681ZM47.24 31.863c.396-3.579 4.783-8.495 4.783-8.495s-14.425 5.708-15.527 6.683c-1.102.975-4.01 5.028-5.56 6.585-1.549 1.558-.55 12.366-.747 13.404-.196 1.037 14.446 7.739 14.446 7.739l9.445-9.58c-5.638-4.314-7.237-12.758-6.84-16.336M70.997 31.401l-3.395-2.357c-.7-.021-2.102-.712-2.102-.712l-9.303 9.858s3.849 3.108 4.148 2.806c.3-.301 7.58-5.338 7.58-5.338l3.072-4.257Z" fill="#2CA0FF"/><path d="M78.174 24.77c-.356.367-9.632 8.553-9.632 8.553l-3.569 4.704-.78 4.999 4.95 3.875 2.04.4-2.988 2.57 2.622 7.58s4.462-1.287 4.49-1.275c.03.012 7.953-8.074 7.953-8.074s-4.963-11.564-4.984-12.741c-.022-1.177-.102-10.59-.102-10.59M138.618 38.721 142.087 36s-2.403-5.012-2.403-5.513c0-.5-2.404-7.61-2.404-7.61l-5.308 4.806v18.614l.531-.605v3.857l-5.03 4.979 5 3.152 9.614-9.8-7.321-4.767 3.852-4.39ZM114.315 50.181l3.369 8.034s8.461-8.42 8.762-8.52l-12.131-15.747v16.233ZM157.398 24.05l-3.417 5.955-2.727 2.669s6.526 1.61 7.333 7.677c.752 5.645-5.135 9.2-5.135 9.2l-1.503 9.35 8.676-9.06 1.044-1.242-1.076-27.624-3.195 3.074ZM183.719 23.86v3.986l-.297.193s-3.917 3.88-3.804 3.88c.112 0 2.682.267 2.682.267l.021 6.357-1.702.236-3.879 3.981 7.182.132v6.692l-7.533 7.897s1.519.307 1.594.231c.075-.076 8.392-8.128 8.392-8.128l-.291-28.258-2.365 2.534ZM193.729 24.4l.138 25.45-4.339 4.38-.963 3.71s.451.836.488.723c.038-.113.501-1.77.501-1.77l7.494-7.355-.157-28.122-3.162 2.985ZM219.565 32.169c-.15-3.755 1.315-7.998 1.315-7.998l-10.141 9.237-.827 5.257.301 1.502 3.189 2.493h4.978s-.154 1.942 0 1.757l3.611-4.311s1.607 1.133 1.648 1.158c.042.026 3.002-3.308 3.002-3.308s-6.926-2.032-7.076-5.787M219.087 46.47c-.418.2-.226 3.4-.226 3.4l-5.491 4.933.31 2.96s2.724.197 2.874.244c.15.047 8.546-8.535 8.546-8.535l-5.828-3.168-.185.165Z" fill="#2CA0FF"/><path d="M25.727 60.126v-44.41h227.859v44.41H25.727Z" fill="#DC4DFF"/><path d="m97.48 58.581 8.923-8.805V19.59l-7.782 8.332-1.141 30.66ZM125.212 20.681S117.2 28.175 117 28.575l8.212 8.81V20.681ZM47.24 31.863c.396-3.579 4.783-8.495 4.783-8.495s-14.425 5.708-15.527 6.683c-1.102.975-4.01 5.028-5.56 6.585-1.549 1.558-.55 12.366-.747 13.404-.196 1.037 14.446 7.739 14.446 7.739l9.445-9.58c-5.638-4.314-7.237-12.758-6.84-16.336M70.997 31.401l-3.395-2.357c-.7-.021-2.102-.712-2.102-.712l-9.303 9.858s3.849 3.108 4.148 2.806c.3-.301 7.58-5.338 7.58-5.338l3.072-4.257Z" fill="#2CA0FF"/><path d="M78.174 24.77c-.356.367-9.632 8.553-9.632 8.553l-3.569 4.704-.78 4.999 4.95 3.875 2.04.4-2.988 2.57 2.622 7.58s4.462-1.287 4.49-1.275c.03.012 7.953-8.074 7.953-8.074s-4.963-11.564-4.984-12.741c-.022-1.177-.102-10.59-.102-10.59M138.618 38.721 142.087 36s-2.403-5.012-2.403-5.513c0-.5-2.404-7.61-2.404-7.61l-5.308 4.806v18.614l.531-.605v3.857l-5.03 4.979 5 3.152 9.614-9.8-7.321-4.767 3.852-4.39ZM114.315 50.181l3.369 8.034s8.461-8.42 8.762-8.52l-12.131-15.747v16.233ZM157.398 24.05l-3.417 5.955-2.727 2.669s6.526 1.61 7.333 7.677c.752 5.645-5.135 9.2-5.135 9.2l-1.503 9.35 8.676-9.06 1.044-1.242-1.076-27.624-3.195 3.074ZM183.719 23.86v3.986l-.297.193s-3.917 3.88-3.804 3.88c.112 0 2.682.267 2.682.267l.021 6.357-1.702.236-3.879 3.981 7.182.132v6.692l-7.533 7.897s1.519.307 1.594.231c.075-.076 8.392-8.128 8.392-8.128l-.291-28.258-2.365 2.534ZM193.729 24.4l.138 25.45-4.339 4.38-.963 3.71s.451.836.488.723c.038-.113.501-1.77.501-1.77l7.494-7.355-.157-28.122-3.162 2.985ZM219.565 32.169c-.15-3.755 1.315-7.998 1.315-7.998l-10.141 9.237-.827 5.257.301 1.502 3.189 2.493h4.978s-.154 1.942 0 1.757l3.611-4.311s1.607 1.133 1.648 1.158c.042.026 3.002-3.308 3.002-3.308s-6.926-2.032-7.076-5.787M219.087 46.47c-.418.2-.226 3.4-.226 3.4l-5.491 4.933.31 2.96s2.724.197 2.874.244c.15.047 8.546-8.535 8.546-8.535l-5.828-3.168-.185.165Z" fill="#2CA0FF"/><path d="m64.39 1.259-.36-.572-.301-.604C62.52.686 15.344 48.277.914 62.849l.96.951C22.8 42.67 62.795 2.405 64.39 1.259M68.574 1.259l-.359-.572-.302-.604C66.706.686 19.53 48.277 5.1 62.849l.96.951C26.985 42.67 66.98 2.405 68.574 1.259M72.76 1.259l-.359-.572L72.1.083C70.892.686 23.716 48.277 9.286 62.849l.96.951C31.173 42.67 71.167 2.405 72.76 1.259M76.946 1.259l-.359-.572-.302-.604c-1.207.603-48.384 48.194-62.814 62.766l.96.951C35.358 42.67 75.352 2.405 76.947 1.259M81.132 1.259l-.359-.572-.302-.604c-1.207.603-48.376 48.194-62.803 62.766l.96.951C39.55 42.67 79.538 2.405 81.132 1.259M85.327 1.259l-.359-.572-.302-.604c-1.208.603-48.384 48.194-62.814 62.766l.96.951C43.738 42.67 83.732 2.405 85.327 1.259M89.512 1.259l-.359-.572-.302-.604c-1.207.603-48.383 48.194-62.813 62.766l.96.951C47.925 42.67 87.919 2.405 89.513 1.259M93.698 1.259l-.359-.572-.302-.604C91.83.686 44.653 48.277 30.223 62.849l.96.951C52.11 42.67 92.105 2.405 93.699 1.259M97.882 1.259l-.358-.572-.302-.604c-1.207.603-48.376 48.194-62.804 62.766l.96.951C56.302 42.67 96.289 2.405 97.883 1.259M102.079 1.259l-.359-.572-.302-.604c-1.207.603-48.383 48.194-62.813 62.766l.96.951c20.926-21.13 60.92-61.395 62.514-62.541M106.265 1.259l-.359-.572-.302-.604C104.396.686 57.22 48.277 42.79 62.849l.96.951c20.926-21.13 60.92-61.395 62.515-62.541M110.45 1.259l-.359-.572-.303-.604c-1.207.603-48.382 48.194-62.813 62.766l.961.951c20.925-21.13 60.92-61.395 62.514-62.541M114.635 1.259l-.358-.572-.302-.604c-1.208.603-48.384 48.194-62.815 62.766l.961.951c20.925-21.13 60.92-61.395 62.514-62.541M118.821 1.259l-.359-.572-.302-.604c-1.207.603-48.376 48.194-62.803 62.766l.96.951c20.922-21.13 60.91-61.395 62.504-62.541M123.017 1.259l-.359-.572-.302-.604c-1.208.603-48.384 48.194-62.814 62.766l.96.951c20.926-21.13 60.921-61.395 62.515-62.541M127.202 1.259l-.359-.572-.303-.604c-1.207.603-48.383 48.194-62.813 62.766l.961.951c20.925-21.13 60.92-61.395 62.514-62.541M131.387 1.259l-.358-.572-.303-.604c-1.207.603-48.383 48.194-62.812 62.766l.96.951C89.8 42.67 129.794 2.405 131.387 1.259M135.572 1.259l-.358-.572-.302-.604c-1.207.603-48.376 48.194-62.805 62.766l.961.951C93.99 42.67 133.98 2.405 135.572 1.259M139.768 1.259l-.358-.572-.303-.604C137.9.686 90.724 48.277 76.294 62.849l.96.951c20.926-21.13 60.92-61.395 62.514-62.541M143.954 1.259l-.359-.572-.302-.604c-1.207.603-48.384 48.194-62.814 62.766l.96.951c20.926-21.13 60.921-61.395 62.515-62.541M148.14 1.259l-.359-.572-.302-.604c-1.208.603-48.384 48.194-62.814 62.766l.961.951c20.925-21.13 60.92-61.395 62.514-62.541M152.325 1.259l-.359-.572-.302-.604c-1.207.603-48.383 48.194-62.813 62.766l.96.951c20.926-21.13 60.92-61.395 62.514-62.541M156.511 1.259l-.359-.572-.302-.604c-1.207.603-48.376 48.194-62.804 62.766l.96.951c20.922-21.13 60.911-61.395 62.505-62.541M160.707 1.259l-.359-.572-.302-.604c-1.208.603-48.383 48.194-62.813 62.766l.96.951c20.925-21.13 60.92-61.395 62.514-62.541M164.892 1.259l-.358-.572-.302-.604c-1.208.603-48.384 48.194-62.814 62.766l.96.951c20.926-21.13 60.92-61.395 62.514-62.541M169.077 1.259l-.359-.572-.302-.604c-1.207.603-48.383 48.194-62.813 62.766l.961.951c20.925-21.13 60.919-61.395 62.513-62.541M173.263 1.259l-.359-.572-.302-.604c-1.207.603-48.376 48.194-62.804 62.766l.96.951c20.922-21.13 60.911-61.395 62.505-62.541M177.459 1.259 177.1.687l-.302-.604c-1.207.603-48.383 48.194-62.813 62.766l.96.951c20.926-21.13 60.92-61.395 62.514-62.541M181.644 1.259l-.359-.572-.302-.604c-1.208.603-48.383 48.194-62.813 62.766l.96.951c20.926-21.13 60.92-61.395 62.514-62.541M185.829 1.259l-.358-.572-.302-.604c-1.208.603-48.384 48.194-62.814 62.766l.96.951c20.926-21.13 60.92-61.395 62.514-62.541M190.015 1.259l-.359-.572-.303-.604c-1.207.603-48.383 48.194-62.813 62.766l.961.951c20.925-21.13 60.92-61.395 62.514-62.541M194.2 1.259l-.358-.572-.302-.604c-1.208.603-48.377 48.194-62.805 62.766l.961.951c20.922-21.13 60.91-61.395 62.504-62.541M198.396 1.259l-.359-.572-.302-.604c-1.208.603-48.383 48.194-62.813 62.766l.96.951c20.926-21.13 60.92-61.395 62.514-62.541M202.582 1.259l-.359-.572-.303-.604c-1.207.603-48.383 48.194-62.813 62.766l.96.951c20.926-21.13 60.921-61.395 62.515-62.541M206.767 1.259l-.358-.572-.303-.604c-1.207.603-48.383 48.194-62.813 62.766l.961.951c20.925-21.13 60.92-61.395 62.513-62.541M210.953 1.259l-.359-.572-.302-.604c-1.207.603-48.375 48.194-62.803 62.766l.96.951c20.922-21.13 60.91-61.395 62.504-62.541M215.147 1.259l-.358-.572-.302-.604c-1.208.603-48.384 48.194-62.815 62.766l.961.951c20.925-21.13 60.92-61.395 62.514-62.541M219.333 1.259l-.359-.572-.302-.604c-1.207.603-48.383 48.194-62.813 62.766l.961.951c20.925-21.13 60.919-61.395 62.513-62.541M223.519 1.259l-.359-.572-.302-.604c-1.207.603-48.384 48.194-62.814 62.766l.961.951c20.925-21.13 60.92-61.395 62.514-62.541M227.704 1.259l-.358-.572-.303-.604c-1.207.603-48.375 48.194-62.803 62.766l.961.951c20.922-21.13 60.91-61.395 62.503-62.541M231.9 1.259l-.359-.572-.302-.604c-1.207.603-48.383 48.194-62.813 62.766l.96.951c20.926-21.13 60.92-61.395 62.514-62.541M236.086 1.259l-.359-.572-.302-.604c-1.208.603-48.384 48.194-62.814 62.766l.96.951c20.926-21.13 60.92-61.395 62.515-62.541M240.271 1.259l-.358-.572-.303-.604c-1.207.603-48.383 48.194-62.813 62.766l.961.951c20.925-21.13 60.92-61.395 62.513-62.541M244.457 1.259l-.358-.572-.302-.604c-1.208.603-48.384 48.194-62.815 62.766l.961.951c20.925-21.13 60.92-61.395 62.514-62.541M248.642 1.259l-.359-.572-.302-.604c-1.207.603-48.375 48.194-62.803 62.766l.96.951c20.922-21.13 60.91-61.395 62.504-62.541M252.838 1.259l-.359-.572-.302-.604c-1.208.603-48.384 48.194-62.814 62.766l.96.951c20.926-21.13 60.921-61.395 62.515-62.541M257.022 1.259l-.358-.572-.303-.604c-1.207.603-48.383 48.194-62.813 62.766l.961.951c20.925-21.13 60.919-61.395 62.513-62.541M261.209 1.259l-.359-.572-.302-.604c-1.208.603-48.383 48.194-62.814 62.766l.961.951c20.925-21.13 60.92-61.395 62.514-62.541M265.395 1.259l-.359-.572-.302-.604c-1.207.603-48.377 48.194-62.805 62.766l.961.951c20.922-21.13 60.91-61.395 62.505-62.541M269.59 1.259l-.358-.572-.303-.604c-1.207.603-48.383 48.194-62.813 62.766l.961.951c20.925-21.13 60.919-61.395 62.513-62.541M273.776 1.259l-.359-.572-.301-.604c-1.208.603-48.385 48.194-62.815 62.766l.961.951c20.925-21.13 60.92-61.395 62.514-62.541M277.961 1.259l-.359-.572-.302-.604c-1.208.603-48.383 48.194-62.814 62.766l.961.951c20.925-21.13 60.92-61.395 62.514-62.541M282.146 1.259l-.358-.572-.303-.604c-1.207.603-48.383 48.194-62.814 62.766l.961.951c20.925-21.13 60.921-61.395 62.514-62.541M286.332 1.259l-.358-.572-.303-.604c-1.207.603-48.375 48.194-62.803 62.766l.961.951c20.922-21.13 60.91-61.395 62.503-62.541M290.527 1.259l-.358-.572-.303-.604c-1.207.603-48.382 48.194-62.812 62.766l.96.951c20.926-21.13 60.92-61.395 62.513-62.541M294.713 1.259l-.358-.572-.302-.604c-1.208.603-48.384 48.194-62.814 62.766l.96.951c20.925-21.13 60.92-61.395 62.514-62.541M298.898 1.259l-.359-.572-.302-.604c-1.207.603-48.383 48.194-62.813 62.766l.961.951c20.925-21.13 60.919-61.395 62.513-62.541M302.725.687l-.302-.605c-1.207.604-48.376 48.195-62.804 62.766l.96.952c20.923-21.131 60.911-61.396 62.505-62.542l-.359-.571Z" fill="#103A77"/></g><mask id="e" style="mask-type:alpha" maskUnits="userSpaceOnUse" x="0" y="0" width="304" height="122"><path fill-rule="evenodd" clip-rule="evenodd" d="M.914 121.777V.082h302.17v121.695H.914Z" fill="#fff"/></mask><g mask="url(#e)" fill-rule="evenodd" clip-rule="evenodd"><path d="M46.993 35.457v-.081c0-8.27 6.326-14.757 14.924-14.757 5.798 0 9.53 2.433 12.044 5.878L68.04 31.08c-1.622-1.987-3.488-3.325-6.205-3.325-3.974 0-6.772 3.406-6.772 7.541v.08c0 4.258 2.798 7.582 6.772 7.582 2.96 0 4.705-1.378 6.408-3.446l5.921 4.216c-2.677 3.69-6.286 6.406-12.531 6.406-8.111 0-14.64-6.203-14.64-14.676" fill="#fff"/><path d="M96.303 35.457v-.082c0-4.136-2.92-7.663-7.258-7.663-4.34 0-7.219 3.487-7.219 7.583v.08c0 4.096 2.96 7.665 7.3 7.665 4.298 0 7.177-3.488 7.177-7.583m-22.506 0v-.082c0-8.15 6.57-14.76 15.328-14.76 8.76 0 15.248 6.529 15.248 14.68v.08c0 8.152-6.569 14.761-15.328 14.761-8.76 0-15.248-6.528-15.248-14.68M106.403 21.184h7.339l11.677 15.003V21.184h7.785v28.383h-6.853l-12.163-15.57v15.57h-7.785V21.184ZM134.059 45.354l4.379-5.233c2.838 2.231 5.92 3.408 9.205 3.408 2.148 0 3.284-.73 3.284-1.948v-.08c0-1.218-.932-1.826-4.825-2.76-6.042-1.378-10.705-3.082-10.705-8.883v-.081c0-5.274 4.176-9.087 10.989-9.087 4.825 0 8.596 1.298 11.678 3.772l-3.934 5.558c-2.595-1.866-5.433-2.799-7.947-2.799-1.906 0-2.839.77-2.839 1.826v.08c0 1.299.974 1.867 4.947 2.76 6.488 1.42 10.543 3.528 10.543 8.843v.08c0 5.802-4.582 9.25-11.475 9.25-5.028 0-9.772-1.582-13.3-4.706M160.624 21.184h22.825v6.65h-15.041v4.339h13.622v6.203h-13.622v4.5h15.243v6.691h-23.027V21.184ZM185.884 49.567V21.184h7.874v28.383h-7.874ZM196.914 21.184h7.869v21.49h13.75v6.893h-21.619V21.184Z" fill="#fff"/><path d="m217.764 45.354 4.379-5.233c2.838 2.231 5.92 3.408 9.204 3.408 2.149 0 3.284-.73 3.284-1.948v-.08c0-1.218-.932-1.826-4.825-2.76-6.042-1.378-10.704-3.082-10.704-8.883v-.081c0-5.274 4.176-9.087 10.988-9.087 4.825 0 8.597 1.298 11.678 3.772l-3.933 5.558c-2.595-1.866-5.433-2.799-7.947-2.799-1.906 0-2.839.77-2.839 1.826v.08c0 1.299.973 1.867 4.947 2.76 6.488 1.42 10.543 3.528 10.543 8.843v.08c0 5.802-4.582 9.25-11.475 9.25-5.029 0-9.773-1.582-13.3-4.706" fill="#fff"/><path d="M167.272 100.411c-5.859 0-9.981-4.017-10.026-9.767a.676.676 0 0 1 .67-.681h.006c.371 0 .672.299.676.67.038 5.04 3.524 8.426 8.674 8.426 5.057 0 8.589-2.991 8.589-7.273 0-5.354-3.535-6.749-9.304-8.58-2.282-.674-6.124-1.807-6.124-6.043 0-3.43 2.646-5.734 6.584-5.734 4.42 0 7.39 2.954 7.39 7.35a.675.675 0 1 1-1.351 0c0-3.7-2.314-5.998-6.039-5.998-3.178 0-5.232 1.72-5.232 4.382 0 2.983 2.34 3.916 5.168 4.75 5.282 1.678 10.259 3.258 10.259 9.873 0 4.997-4.18 8.625-9.94 8.625M118.491 99.342a.676.676 0 0 1-.071-1.348A12.736 12.736 0 0 0 129.823 85.3c0-7.04-5.729-12.768-12.771-12.768-7.042 0-12.771 5.728-12.771 12.768 0 6.314 4.519 11.616 10.745 12.608a.677.677 0 0 1 .561.774.674.674 0 0 1-.774.56c-6.886-1.096-11.884-6.96-11.884-13.942 0-7.785 6.335-14.12 14.123-14.12 7.787 0 14.123 6.335 14.123 14.12a14.085 14.085 0 0 1-12.612 14.039.668.668 0 0 1-.072.004M194.006 99.342a.676.676 0 0 1-.071-1.348A12.735 12.735 0 0 0 205.337 85.3c0-7.04-5.728-12.768-12.77-12.768-7.041 0-12.77 5.728-12.77 12.768 0 6.314 4.518 11.616 10.744 12.608a.676.676 0 0 1-.213 1.335c-6.885-1.097-11.883-6.96-11.883-13.943 0-7.785 6.335-14.12 14.122-14.12s14.122 6.335 14.122 14.12a14.084 14.084 0 0 1-12.611 14.039.668.668 0 0 1-.072.004M91.875 99.415c-7.787 0-14.123-6.333-14.123-14.118 0-7.784 6.336-14.117 14.123-14.117 3.455 0 6.781 1.262 9.367 3.554a.675.675 0 1 1-.897 1.011 12.758 12.758 0 0 0-8.47-3.214c-7.042 0-12.771 5.727-12.771 12.766 0 7.04 5.73 12.767 12.771 12.767 3.124 0 6.132-1.142 8.47-3.215a.676.676 0 0 1 .897 1.011 14.106 14.106 0 0 1-9.367 3.555M152.572 99.415a.676.676 0 0 1-.577-.324L136.88 74.265V98.74a.676.676 0 0 1-1.352 0V71.855a.676.676 0 0 1 1.254-.351l15.114 24.825V72.974a.676.676 0 0 1 1.352 0V98.74a.674.674 0 0 1-.676.675" fill="#DC4DFF"/><path d="M212.633 105.465H75.11a.676.676 0 0 1 0-1.352h136.847V68.471H72.485v36.318a.676.676 0 1 1-1.352 0V67.795c0-.373.303-.676.676-.676h140.824c.373 0 .676.303.676.676v36.994a.676.676 0 0 1-.676.676" fill="#DC4DFF"/></g></g></svg>