<?xml version="1.0" encoding="utf-8"?>
<!-- Generator: Adobe Illustrator 21.1.0, SVG Export Plug-In . SVG Version: 6.00 Build 0)  -->
<svg version="1.1" id="Layer_1" xmlns="http://www.w3.org/2000/svg" xmlns:xlink="http://www.w3.org/1999/xlink" x="0px" y="0px"
	 viewBox="0 0 459 195" style="enable-background:new 0 0 459 195;" xml:space="preserve">
<style type="text/css">
	.st0{fill:#FFFFFF;filter:url(#Adobe_OpacityMaskFilter);}
	.st1{mask:url(#a);}
	.st2{fill:#FFFFFF;filter:url(#Adobe_OpacityMaskFilter_1_);}
	.st3{opacity:0.2;mask:url(#b);}
	.st4{fill:#FFFFFF;filter:url(#Adobe_OpacityMaskFilter_2_);}
	.st5{mask:url(#c);}
	.st6{fill:#FFFFFF;filter:url(#Adobe_OpacityMaskFilter_3_);}
	.st7{mask:url(#d);}
	.st8{fill:#2CA0FF;}
	.st9{fill:#DC4DFF;}
	.st10{fill:#103A77;}
	.st11{fill:#FFFFFF;filter:url(#Adobe_OpacityMaskFilter_4_);}
	.st12{mask:url(#e);}
	.st13{fill:#FFFFFF;}
</style>
<defs>
	<filter id="Adobe_OpacityMaskFilter" filterUnits="userSpaceOnUse" x="0" y="0" width="483.8" height="177">
		<feColorMatrix  type="matrix" values="1 0 0 0 0  0 1 0 0 0  0 0 1 0 0  0 0 0 1 0"/>
	</filter>
</defs>
<mask maskUnits="userSpaceOnUse" x="0" y="0" width="483.8" height="177" id="a">
	<path class="st0" d="M0,194.8V0h483.8v194.8H0z"/>
</mask>
<g class="st1">
	<defs>
		<filter id="Adobe_OpacityMaskFilter_1_" filterUnits="userSpaceOnUse" x="102.8" y="115.6" width="227.6" height="61.4">
			<feColorMatrix  type="matrix" values="1 0 0 0 0  0 1 0 0 0  0 0 1 0 0  0 0 0 1 0"/>
		</filter>
	</defs>
	<mask maskUnits="userSpaceOnUse" x="102.8" y="115.6" width="227.6" height="61.4" id="b">
		<path class="st2" d="M0,194.8V0h483.8v194.8H0z"/>
	</mask>
	<g class="st3">
		<defs>
			<filter id="Adobe_OpacityMaskFilter_2_" filterUnits="userSpaceOnUse" x="102.8" y="115.6" width="227.6" height="61.4">
				<feColorMatrix  type="matrix" values="1 0 0 0 0  0 1 0 0 0  0 0 1 0 0  0 0 0 1 0"/>
			</filter>
		</defs>
		<mask maskUnits="userSpaceOnUse" x="102.8" y="115.6" width="227.6" height="61.4" id="c">
			<path class="st4" d="M102.8,177v-61.4h227.6V177H102.8z"/>
		</mask>
		<g class="st5">
			<path d="M256.7,168.9c-9.4,0-16-6.4-16.1-15.6l2.2,0c0.1,8.1,5.6,13.5,13.9,13.5c8.1,0,13.8-4.8,13.8-11.6
				c0-8.6-5.7-10.8-14.9-13.7c-3.7-1.1-9.8-2.9-9.8-9.7c0-5.5,4.2-9.2,10.5-9.2c7.1,0,11.8,4.7,11.8,11.8H266c0-5.9-3.7-9.6-9.7-9.6
				c-5.1,0-8.4,2.8-8.4,7c0,4.8,3.7,6.3,8.3,7.6c8.5,2.7,16.4,5.2,16.4,15.8C272.6,163.1,265.9,168.9,256.7,168.9 M178.7,167.2
				l-0.2-2.2c10.4-1.1,18.3-9.8,18.3-20.3c0-11.3-9.2-20.4-20.4-20.4s-20.4,9.2-20.4,20.4c0,10.1,7.2,18.6,17.2,20.2l-0.3,2.1
				c-11-1.8-19-11.1-19-22.3c0-12.5,10.1-22.6,22.6-22.6s22.6,10.1,22.6,22.6C198.9,156.3,190.2,166,178.7,167.2 M299.6,167.2
				l-0.2-2.2c10.4-1.1,18.3-9.8,18.3-20.3c0-11.3-9.2-20.4-20.4-20.4s-20.4,9.2-20.4,20.4c0,10.1,7.2,18.6,17.2,20.2l-0.3,2.1
				c-11-1.8-19-11.1-19-22.3c0-12.5,10.1-22.6,22.6-22.6c12.5,0,22.6,10.1,22.6,22.6C319.8,156.3,311.1,166,299.6,167.2 M136,167.3
				c-12.5,0-22.6-10.1-22.6-22.6c0-12.5,10.1-22.6,22.6-22.6c5.5,0,10.9,2,15,5.7l-1.4,1.6c-3.7-3.3-8.6-5.1-13.6-5.1
				c-11.3,0-20.4,9.2-20.4,20.4c0,11.3,9.2,20.4,20.4,20.4c5,0,9.8-1.8,13.6-5.1l1.4,1.6C146.8,165.3,141.5,167.3,136,167.3
				 M234.2,170.1L208,127v39.2h-2.2v-46.9l26.2,43V125h2.2V170.1z"/>
			<path d="M330.4,177H109.2v-2.2h219.1v-57.1H105v58.1h-2.2v-60.3h227.6V177z"/>
		</g>
	</g>
	<defs>
		<filter id="Adobe_OpacityMaskFilter_3_" filterUnits="userSpaceOnUse" x="0" y="0" width="483.8" height="102">
			<feColorMatrix  type="matrix" values="1 0 0 0 0  0 1 0 0 0  0 0 1 0 0  0 0 0 1 0"/>
		</filter>
	</defs>
	<mask maskUnits="userSpaceOnUse" x="0" y="0" width="483.8" height="102" id="d">
		<path class="st6" d="M158.3,43.8l0.8,1h-2v2.8c-2-2.2-3.9-4.5-5.9-6.7l-0.1-0.1l-26.9-1.3l-0.2,0l-0.1,0.1
			c-10.6,10-13.1,12.5-13.6,13.2l0,0c-3.5,4.2-5.5,9.6-5.5,15.2l-6.8,5.8l-17.9-8.4L77,61.8c1.8-3.6,5.2-5.8,9.1-5.8
			c3.7,0,6.7,1.6,9.7,5.2l0.2,0.3l20.7-19.2l-4.2-3.4l-30.6-0.4l-0.1,0l-0.1,0.1C70.3,49.4,67.7,52,67.2,52.8l0,0
			C63.8,57,62,62.2,62,67.9V68c0,13.6,10.2,23.9,23.8,23.9c8.9,0,15.1-3.2,20.3-10.4l1.9-1.8c4.3,7.6,12.4,12.1,21.7,12.1
			c5.4,0,10.4-1.5,14.7-4.5l12.7-12.1V91h13.2v-0.3l10.8-11.3l8.1,11.6h11.3c0,0,0.1,0,0.1,0h0.2v-0.1c0.2-0.1,0.8-0.7,4.3-4.2
			c5.1,3.3,11.3,5,18,5c5.5,0,10.2-1.4,13.5-3.9l0,0.1l0.4-0.4c0.8-0.7,1.5-1.4,2.1-2.3L244,80L243.9,91h36.4l1.3,0l2.8-2.9V91
			l12.6,0l1.2-0.1v-0.2c0.3-0.4,2.3-2.6,3.8-4.3V91h34.6l3.8-3.3c4.8,2.7,10.5,4.1,16.6,4.1c4.9,0,9.1-1.1,12.3-3.1l0,0
			c1.8-1.2,3.3-2.6,4.3-4.3l9.6-9.6l-3-1.5l-4.5,1.9c-0.1-0.8-0.2-1.5-0.4-2.3c0.2-0.1,0.3-0.2,0.4-0.3c0.2-0.4,0.8-1.2,1.4-2
			c1.9-2.6,2.8-3.9,2.4-4.5c-0.5-0.7-3.8-5.6-3.8-5.6l-4-5.9l2.2-3.1l0.9-0.6l4.3-2.6l0-0.2c0.6-3.1,1-6.8,0.2-7.3
			c-0.8-0.5-8.8-2.8-9.7-3l-16.1-0.3l-14.1,14.1l-0.1,0.1c-1.3,2.2-2,4.7-2,7.4V59c0,8.3,5.8,11.5,13.1,13.5
			c-2.2-0.1-3.8-0.2-3.8-0.2l-0.1,0l-3.5,2.9c-1.1-0.7-1.3-0.8-1.5-0.8h-6.3l-0.1,0c-0.5,0.2-4.4,1.9-5.2,2.6
			c-0.3,0.3-0.4,1-0.1,2.1h-14.7V50.3l2.6-3.1l-4.3-13.2l-12.1,11.6l0.6,0.6v31.2l-4.3-0.8V50.3c3.7-1.8,3.8-2.1,3.9-2.4
			c0.1-0.5-1.7-5-5.3-13.5L296,34l-7.9,7.3c-2.3-1.9-2.8-2.2-3.1-2.3c-0.9-0.4-7.4-0.1-8.7,0l-0.2,0l-2.6,4.3l-1.5-1.5l-8.4-6.1
			c-0.9-1.1-6.3-1.5-8-1.5l-0.2,0L244,44.7c-2.2-5.6-2.4-5.8-2.5-5.9c-0.1-0.1-0.4-0.4-21-1.9l-0.2,0l-12,11.2
			c-0.6-1-1.1-5.7-1.4-8.4c-0.5-4.6-0.6-5.2-1.1-5.2c-0.1,0-0.3,0-0.4,0.2l-6.3-0.6l-11.3,10.9l-0.3,0.1v0.2l-1.9,1.9l-16.8-13.3
			l-0.3-0.2C168.6,33.5,158.3,43.8,158.3,43.8z"/>
	</mask>
	<g class="st7">
		<path class="st8" d="M154.6,93.6l14.3-14.1V31.2l-12.5,13.3C156.4,44.6,154.6,93.6,154.6,93.6z M199,33c0,0-12.8,12-13.1,12.6
			L199,59.7V33z M74.2,50.9c0.6-5.7,7.7-13.6,7.7-13.6S58.7,46.4,57,48c-1.8,1.6-6.4,8-8.9,10.5C45.6,61,47.2,78.3,46.9,80
			C46.6,81.6,70,92.4,70,92.4L85.1,77C76.1,70.1,73.5,56.6,74.2,50.9 M112.2,50.1l-5.4-3.8c-1.1,0-3.4-1.1-3.4-1.1L88.5,61
			c0,0,6.2,5,6.6,4.5c0.5-0.5,12.1-8.5,12.1-8.5S112.2,50.1,112.2,50.1z"/>
		<path class="st8" d="M123.7,39.5c-0.6,0.6-15.4,13.7-15.4,13.7l-5.7,7.5l-1.2,8l7.9,6.2l3.3,0.6l-4.8,4.1l4.2,12.1
			c0,0,7.1-2.1,7.2-2c0,0,12.7-12.9,12.7-12.9s-7.9-18.5-8-20.4C123.8,54.6,123.7,39.5,123.7,39.5 M220.5,61.9l5.6-4.4
			c0,0-3.8-8-3.8-8.8c0-0.8-3.8-12.2-3.8-12.2l-8.5,7.7V74l0.9-1v6.2l-8.1,8l8,5L226,76.5l-11.7-7.6L220.5,61.9L220.5,61.9z
			 M181.6,80.2l5.4,12.9c0,0,13.5-13.5,14-13.6l-19.4-25.2V80.2z M250.5,38.4l-5.5,9.5l-4.4,4.3c0,0,10.4,2.6,11.7,12.3
			c1.2,9-8.2,14.7-8.2,14.7l-2.4,15l13.9-14.5l1.7-2l-1.7-44.2C255.6,33.4,250.5,38.4,250.5,38.4z M292.7,38.1v6.4l-0.5,0.3
			c0,0-6.3,6.2-6.1,6.2c0.2,0,4.3,0.4,4.3,0.4l0,10.2l-2.7,0.4l-6.2,6.4l11.5,0.2v10.7l-12.1,12.6c0,0,2.4,0.5,2.6,0.4
			c0.1-0.1,13.4-13,13.4-13L296.5,34L292.7,38.1L292.7,38.1z M308.7,38.9l0.2,40.7l-6.9,7l-1.5,5.9c0,0,0.7,1.3,0.8,1.2
			c0.1-0.2,0.8-2.8,0.8-2.8l12-11.8l-0.3-45L308.7,38.9L308.7,38.9z M350.1,51.4c-0.2-6,2.1-12.8,2.1-12.8l-16.2,14.8l-1.3,8.4
			l0.5,2.4l5.1,4h8c0,0-0.2,3.1,0,2.8l5.8-6.9c0,0,2.6,1.8,2.6,1.9c0.1,0,4.8-5.3,4.8-5.3S350.3,57.4,350.1,51.4 M349.3,74.3
			c-0.7,0.3-0.4,5.4-0.4,5.4l-8.8,7.9l0.5,4.7c0,0,4.4,0.3,4.6,0.4c0.2,0.1,13.7-13.7,13.7-13.7l-9.3-5.1L349.3,74.3L349.3,74.3z"/>
		<path class="st9" d="M39.7,96.1V25h364.8v71.1H39.7z"/>
		<path class="st8" d="M154.6,93.6l14.3-14.1V31.2l-12.5,13.3C156.4,44.6,154.6,93.6,154.6,93.6z M199,33c0,0-12.8,12-13.1,12.6
			L199,59.7V33z M74.2,50.9c0.6-5.7,7.7-13.6,7.7-13.6S58.7,46.4,57,48c-1.8,1.6-6.4,8-8.9,10.5C45.6,61,47.2,78.3,46.9,80
			C46.6,81.6,70,92.4,70,92.4L85.1,77C76.1,70.1,73.5,56.6,74.2,50.9 M112.2,50.1l-5.4-3.8c-1.1,0-3.4-1.1-3.4-1.1L88.5,61
			c0,0,6.2,5,6.6,4.5c0.5-0.5,12.1-8.5,12.1-8.5S112.2,50.1,112.2,50.1z"/>
		<path class="st8" d="M123.7,39.5c-0.6,0.6-15.4,13.7-15.4,13.7l-5.7,7.5l-1.2,8l7.9,6.2l3.3,0.6l-4.8,4.1l4.2,12.1
			c0,0,7.1-2.1,7.2-2c0,0,12.7-12.9,12.7-12.9s-7.9-18.5-8-20.4C123.8,54.6,123.7,39.5,123.7,39.5 M220.5,61.9l5.6-4.4
			c0,0-3.8-8-3.8-8.8c0-0.8-3.8-12.2-3.8-12.2l-8.5,7.7V74l0.9-1v6.2l-8.1,8l8,5L226,76.5l-11.7-7.6L220.5,61.9L220.5,61.9z
			 M181.6,80.2l5.4,12.9c0,0,13.5-13.5,14-13.6l-19.4-25.2V80.2z M250.5,38.4l-5.5,9.5l-4.4,4.3c0,0,10.4,2.6,11.7,12.3
			c1.2,9-8.2,14.7-8.2,14.7l-2.4,15l13.9-14.5l1.7-2l-1.7-44.2C255.6,33.4,250.5,38.4,250.5,38.4z M292.7,38.1v6.4l-0.5,0.3
			c0,0-6.3,6.2-6.1,6.2c0.2,0,4.3,0.4,4.3,0.4l0,10.2l-2.7,0.4l-6.2,6.4l11.5,0.2v10.7l-12.1,12.6c0,0,2.4,0.5,2.6,0.4
			c0.1-0.1,13.4-13,13.4-13L296.5,34L292.7,38.1L292.7,38.1z M308.7,38.9l0.2,40.7l-6.9,7l-1.5,5.9c0,0,0.7,1.3,0.8,1.2
			c0.1-0.2,0.8-2.8,0.8-2.8l12-11.8l-0.3-45L308.7,38.9L308.7,38.9z M350.1,51.4c-0.2-6,2.1-12.8,2.1-12.8l-16.2,14.8l-1.3,8.4
			l0.5,2.4l5.1,4h8c0,0-0.2,3.1,0,2.8l5.8-6.9c0,0,2.6,1.8,2.6,1.9c0.1,0,4.8-5.3,4.8-5.3S350.3,57.4,350.1,51.4 M349.3,74.3
			c-0.7,0.3-0.4,5.4-0.4,5.4l-8.8,7.9l0.5,4.7c0,0,4.4,0.3,4.6,0.4c0.2,0.1,13.7-13.7,13.7-13.7l-9.3-5.1L349.3,74.3L349.3,74.3z"/>
		<path class="st10" d="M101.6,1.9L101,1l-0.5-1C98.6,1,23.1,77.2,0,100.5l1.5,1.5C35,68.2,99.1,3.7,101.6,1.9 M108.3,1.9L107.7,1
			l-0.5-1C105.3,1,29.8,77.2,6.7,100.5l1.5,1.5C41.7,68.2,105.8,3.7,108.3,1.9 M115,1.9L114.4,1L114,0C112,1,36.5,77.2,13.4,100.5
			l1.5,1.5C48.4,68.2,112.5,3.7,115,1.9 M121.7,1.9L121.2,1l-0.5-1c-1.9,1-77.5,77.2-100.6,100.5l1.5,1.5
			C55.2,68.2,119.2,3.7,121.7,1.9 M128.4,1.9L127.9,1l-0.5-1c-1.9,1-77.5,77.2-100.6,100.5l1.5,1.5C61.9,68.2,125.9,3.7,128.4,1.9
			 M135.1,1.9L134.6,1l-0.5-1c-1.9,1-77.5,77.2-100.6,100.5l1.5,1.5C68.6,68.2,132.6,3.7,135.1,1.9 M141.8,1.9L141.3,1l-0.5-1
			c-1.9,1-77.5,77.2-100.6,100.5l1.5,1.5C75.3,68.2,139.3,3.7,141.8,1.9 M148.5,1.9L148,1l-0.5-1C145.6,1,70,77.2,46.9,100.5
			l1.5,1.5C82,68.2,146,3.7,148.5,1.9 M155.3,1.9L154.7,1l-0.5-1c-1.9,1-77.5,77.2-100.6,100.5l1.5,1.5
			C88.7,68.2,152.7,3.7,155.3,1.9 M162,1.9L161.4,1l-0.5-1C159,1,83.4,77.2,60.3,100.5l1.5,1.5C95.4,68.2,159.4,3.7,162,1.9
			 M168.7,1.9L168.1,1l-0.5-1C165.7,1,90.1,77.2,67,100.5l1.5,1.5C102.1,68.2,166.1,3.7,168.7,1.9 M175.4,1.9L174.8,1l-0.5-1
			c-1.9,1-77.5,77.2-100.6,100.5l1.5,1.5C108.8,68.2,172.8,3.7,175.4,1.9 M182.1,1.9L181.5,1L181,0c-1.9,1-77.5,77.2-100.6,100.5
			L82,102C115.5,68.2,179.5,3.7,182.1,1.9 M188.8,1.9L188.2,1l-0.5-1c-1.9,1-77.5,77.2-100.6,100.5l1.5,1.5
			C122.2,68.2,186.2,3.7,188.8,1.9 M195.5,1.9L194.9,1l-0.5-1C192.5,1,117,77.2,93.9,100.5l1.5,1.5C128.9,68.2,192.9,3.7,195.5,1.9
			 M202.2,1.9L201.6,1l-0.5-1c-1.9,1-77.5,77.2-100.6,100.5l1.5,1.5C135.6,68.2,199.6,3.7,202.2,1.9 M208.9,1.9L208.3,1l-0.5-1
			c-1.9,1-77.5,77.2-100.6,100.5l1.5,1.5C142.3,68.2,206.3,3.7,208.9,1.9 M215.6,1.9L215,1l-0.5-1c-1.9,1-77.5,77.2-100.6,100.5
			l1.5,1.5C149,68.2,213,3.7,215.6,1.9 M222.3,1.9L221.7,1l-0.5-1c-1.9,1-77.5,77.2-100.6,100.5l1.5,1.5
			C155.7,68.2,219.7,3.7,222.3,1.9 M229,1.9L228.4,1l-0.5-1c-1.9,1-77.5,77.2-100.6,100.5l1.5,1.5C162.4,68.2,226.4,3.7,229,1.9
			 M235.7,1.9L235.1,1l-0.5-1c-1.9,1-77.5,77.2-100.6,100.5l1.5,1.5C169.1,68.2,233.1,3.7,235.7,1.9 M242.4,1.9L241.8,1l-0.5-1
			c-1.9,1-77.5,77.2-100.6,100.5l1.5,1.5C175.8,68.2,239.9,3.7,242.4,1.9 M249.1,1.9L248.5,1l-0.5-1c-1.9,1-77.5,77.2-100.6,100.5
			l1.5,1.5C182.5,68.2,246.6,3.7,249.1,1.9 M255.8,1.9L255.2,1l-0.5-1c-1.9,1-77.5,77.2-100.6,100.5l1.5,1.5
			C189.2,68.2,253.3,3.7,255.8,1.9 M262.5,1.9L262,1l-0.5-1c-1.9,1-77.5,77.2-100.6,100.5l1.5,1.5C195.9,68.2,260,3.7,262.5,1.9
			 M269.2,1.9L268.7,1l-0.5-1c-1.9,1-77.5,77.2-100.6,100.5l1.5,1.5C202.6,68.2,266.7,3.7,269.2,1.9 M275.9,1.9L275.4,1l-0.5-1
			c-1.9,1-77.5,77.2-100.6,100.5l1.5,1.5C209.4,68.2,273.4,3.7,275.9,1.9 M282.6,1.9L282.1,1l-0.5-1c-1.9,1-77.5,77.2-100.6,100.5
			l1.5,1.5C216.1,68.2,280.1,3.7,282.6,1.9 M289.3,1.9L288.8,1l-0.5-1c-1.9,1-77.5,77.2-100.6,100.5l1.5,1.5
			C222.8,68.2,286.8,3.7,289.3,1.9 M296,1.9L295.5,1L295,0c-1.9,1-77.5,77.2-100.6,100.5l1.5,1.5C229.5,68.2,293.5,3.7,296,1.9
			 M302.8,1.9L302.2,1l-0.5-1c-1.9,1-77.5,77.2-100.6,100.5l1.5,1.5C236.2,68.2,300.2,3.7,302.8,1.9 M309.5,1.9L308.9,1l-0.5-1
			c-1.9,1-77.5,77.2-100.6,100.5l1.5,1.5C242.9,68.2,306.9,3.7,309.5,1.9 M316.2,1.9L315.6,1l-0.5-1c-1.9,1-77.5,77.2-100.6,100.5
			l1.5,1.5C249.6,68.2,313.6,3.7,316.2,1.9 M322.9,1.9L322.3,1l-0.5-1c-1.9,1-77.5,77.2-100.6,100.5l1.5,1.5
			C256.3,68.2,320.3,3.7,322.9,1.9 M329.6,1.9L329,1l-0.5-1c-1.9,1-77.5,77.2-100.6,100.5l1.5,1.5C263,68.2,327,3.7,329.6,1.9
			 M336.3,1.9L335.7,1l-0.5-1c-1.9,1-77.5,77.2-100.6,100.5l1.5,1.5C269.7,68.2,333.7,3.7,336.3,1.9 M343,1.9L342.4,1l-0.5-1
			c-1.9,1-77.5,77.2-100.6,100.5l1.5,1.5C276.4,68.2,340.4,3.7,343,1.9 M349.7,1.9L349.1,1l-0.5-1c-1.9,1-77.5,77.2-100.6,100.5
			l1.5,1.5C283.1,68.2,347.1,3.7,349.7,1.9 M356.4,1.9L355.8,1l-0.5-1c-1.9,1-77.5,77.2-100.6,100.5l1.5,1.5
			C289.8,68.2,353.8,3.7,356.4,1.9 M363.1,1.9L362.5,1L362,0c-1.9,1-77.5,77.2-100.6,100.5l1.5,1.5C296.5,68.2,360.5,3.7,363.1,1.9
			 M369.8,1.9L369.2,1l-0.5-1c-1.9,1-77.5,77.2-100.6,100.5l1.5,1.5C303.2,68.2,367.2,3.7,369.8,1.9 M376.5,1.9L375.9,1l-0.5-1
			c-1.9,1-77.5,77.2-100.6,100.5l1.5,1.5C309.9,68.2,373.9,3.7,376.5,1.9 M383.2,1.9L382.6,1l-0.5-1c-1.9,1-77.5,77.2-100.6,100.5
			l1.5,1.5C316.6,68.2,380.7,3.7,383.2,1.9 M389.9,1.9L389.3,1l-0.5-1c-1.9,1-77.5,77.2-100.6,100.5l1.5,1.5
			C323.3,68.2,387.4,3.7,389.9,1.9 M396.6,1.9L396,1l-0.5-1c-1.9,1-77.5,77.2-100.6,100.5l1.5,1.5C330,68.2,394.1,3.7,396.6,1.9
			 M403.3,1.9L402.7,1l-0.5-1c-1.9,1-77.5,77.2-100.6,100.5l1.5,1.5C336.7,68.2,400.8,3.7,403.3,1.9 M410,1.9L409.4,1L409,0
			c-1.9,1-77.5,77.2-100.6,100.5l1.5,1.5C343.4,68.2,407.5,3.7,410,1.9 M416.7,1.9L416.1,1l-0.5-1c-1.9,1-77.5,77.2-100.6,100.5
			l1.5,1.5C350.1,68.2,414.2,3.7,416.7,1.9 M423.4,1.9L422.9,1l-0.5-1c-1.9,1-77.5,77.2-100.6,100.5l1.5,1.5
			C356.9,68.2,420.9,3.7,423.4,1.9 M430.1,1.9L429.6,1l-0.5-1c-1.9,1-77.5,77.2-100.6,100.5l1.5,1.5C363.6,68.2,427.6,3.7,430.1,1.9
			 M436.8,1.9L436.3,1l-0.5-1c-1.9,1-77.5,77.2-100.6,100.5l1.5,1.5C370.3,68.2,434.3,3.7,436.8,1.9 M443.5,1.9L443,1l-0.5-1
			c-1.9,1-77.5,77.2-100.6,100.5l1.5,1.5C377,68.2,441,3.7,443.5,1.9 M450.2,1.9L449.7,1l-0.5-1c-1.9,1-77.5,77.2-100.6,100.5
			l1.5,1.5C383.7,68.2,447.7,3.7,450.2,1.9 M457,1.9L456.4,1l-0.5-1c-1.9,1-77.5,77.2-100.6,100.5l1.5,1.5
			C390.4,68.2,454.4,3.7,457,1.9 M463.7,1.9L463.1,1l-0.5-1c-1.9,1-77.5,77.2-100.6,100.5l1.5,1.5C397.1,68.2,461.1,3.7,463.7,1.9
			 M470.4,1.9L469.8,1l-0.5-1c-1.9,1-77.5,77.2-100.6,100.5l1.5,1.5C403.8,68.2,467.8,3.7,470.4,1.9 M477.1,1.9L476.5,1L476,0
			c-1.9,1-77.5,77.2-100.6,100.5l1.5,1.5C410.5,68.2,474.5,3.7,477.1,1.9 M483.2,1l-0.5-1c-1.9,1-77.5,77.2-100.6,100.5l1.5,1.5
			C417.2,68.2,481.2,3.7,483.8,1.9L483.2,1L483.2,1z"/>
	</g>
	<defs>
		<filter id="Adobe_OpacityMaskFilter_4_" filterUnits="userSpaceOnUse" x="73.8" y="32.9" width="313.1" height="135.8">
			<feColorMatrix  type="matrix" values="1 0 0 0 0  0 1 0 0 0  0 0 1 0 0  0 0 0 1 0"/>
		</filter>
	</defs>
	<mask maskUnits="userSpaceOnUse" x="73.8" y="32.9" width="313.1" height="135.8" id="e">
		<path class="st11" d="M0,194.8V0h483.8v194.8H0z"/>
	</mask>
	<g class="st12">
		<path class="st13" d="M73.8,56.6v-0.1c0-13.2,10.1-23.6,23.9-23.6c9.3,0,15.3,3.9,19.3,9.4l-9.5,7.3c-2.6-3.2-5.6-5.3-9.9-5.3
			c-6.4,0-10.8,5.5-10.8,12.1v0.1c0,6.8,4.5,12.1,10.8,12.1c4.7,0,7.5-2.2,10.3-5.5l9.5,6.8c-4.3,5.9-10.1,10.3-20.1,10.3
			C84.2,80.1,73.8,70.2,73.8,56.6"/>
		<path class="st13" d="M152.7,56.6v-0.1c0-6.6-4.7-12.3-11.6-12.3c-6.9,0-11.6,5.6-11.6,12.1v0.1c0,6.6,4.7,12.3,11.7,12.3
			C148.1,68.8,152.7,63.2,152.7,56.6 M116.7,56.6v-0.1c0-13,10.5-23.6,24.5-23.6c14,0,24.4,10.5,24.4,23.5v0.1
			c0,13-10.5,23.6-24.5,23.6C127.1,80.1,116.7,69.7,116.7,56.6 M168.9,33.8h11.8l18.7,24v-24h12.5v45.4h-11l-19.5-24.9v24.9h-12.5
			V33.8z M213.2,72.5l7-8.4c4.5,3.6,9.5,5.5,14.7,5.5c3.4,0,5.3-1.2,5.3-3.1v-0.1c0-1.9-1.5-2.9-7.7-4.4
			c-9.7-2.2-17.1-4.9-17.1-14.2v-0.1c0-8.4,6.7-14.5,17.6-14.5c7.7,0,13.8,2.1,18.7,6l-6.3,8.9c-4.2-3-8.7-4.5-12.7-4.5
			c-3.1,0-4.5,1.2-4.5,2.9v0.1c0,2.1,1.6,3,7.9,4.4c10.4,2.3,16.9,5.6,16.9,14.2v0.1c0,9.3-7.3,14.8-18.4,14.8
			C226.4,80,218.8,77.5,213.2,72.5 M255.7,33.8h36.6v10.6h-24.1v6.9H290v9.9h-21.8v7.2h24.4v10.7h-36.9L255.7,33.8L255.7,33.8z
			 M296.1,79.2V33.8h12.6v45.4L296.1,79.2L296.1,79.2z M313.8,33.8h12.6v34.4h22v11h-34.6V33.8z"/>
		<path class="st13" d="M347.2,72.5l7-8.4c4.5,3.6,9.5,5.5,14.7,5.5c3.4,0,5.3-1.2,5.3-3.1v-0.1c0-1.9-1.5-2.9-7.7-4.4
			c-9.7-2.2-17.1-4.9-17.1-14.2v-0.1c0-8.4,6.7-14.5,17.6-14.5c7.7,0,13.8,2.1,18.7,6l-6.3,8.9c-4.2-3-8.7-4.5-12.7-4.5
			c-3.1,0-4.5,1.2-4.5,2.9v0.1c0,2.1,1.6,3,7.9,4.4c10.4,2.3,16.9,5.6,16.9,14.2v0.1c0,9.3-7.3,14.8-18.4,14.8
			C360.4,80,352.8,77.5,347.2,72.5"/>
		<path class="st9" d="M266.3,160.6c-9.4,0-16-6.4-16.1-15.6c0-0.6,0.5-1.1,1.1-1.1c0,0,0,0,0,0h0c0.6,0,1.1,0.5,1.1,1.1
			c0.1,8.1,5.6,13.5,13.9,13.5c8.1,0,13.8-4.8,13.8-11.6c0-8.6-5.7-10.8-14.9-13.7c-3.7-1.1-9.8-2.9-9.8-9.7c0-5.5,4.2-9.2,10.5-9.2
			c7.1,0,11.8,4.7,11.8,11.8c0,0.6-0.5,1.1-1.1,1c-0.6,0-1-0.5-1-1c0-5.9-3.7-9.6-9.7-9.6c-5.1,0-8.4,2.8-8.4,7
			c0,4.8,3.7,6.3,8.3,7.6c8.5,2.7,16.4,5.2,16.4,15.8C282.3,154.8,275.6,160.6,266.3,160.6 M188.2,158.9c-0.6,0-1.1-0.5-1.1-1.1
			c0-0.5,0.4-1,1-1.1c10.4-1.1,18.3-9.8,18.3-20.3c0-11.3-9.2-20.4-20.4-20.4s-20.4,9.2-20.4,20.4c0,10.1,7.2,18.6,17.2,20.2
			c0.6,0.1,1,0.6,0.9,1.2s-0.6,1-1.2,0.9l0,0c-11-1.8-19-11.1-19-22.3c0-12.5,10.1-22.6,22.6-22.6c12.5,0,22.6,10.1,22.6,22.6
			c0,11.6-8.7,21.3-20.2,22.5C188.3,158.9,188.3,158.9,188.2,158.9 M309.1,158.9c-0.6,0-1.1-0.5-1.1-1.1c0-0.6,0.4-1,1-1.1
			c10.4-1.1,18.3-9.8,18.3-20.3c0-11.3-9.2-20.4-20.4-20.4c-11.3,0-20.4,9.2-20.4,20.4c0,10.1,7.2,18.6,17.2,20.2
			c0.6,0.1,1,0.7,0.8,1.3c-0.1,0.6-0.6,0.9-1.2,0.9c-11-1.8-19-11.1-19-22.3c0-12.5,10.1-22.6,22.6-22.6c12.5,0,22.6,10.1,22.6,22.6
			c0,11.6-8.7,21.3-20.2,22.5C309.2,158.9,309.2,158.9,309.1,158.9 M145.6,159c-12.5,0-22.6-10.1-22.6-22.6
			c0-12.5,10.1-22.6,22.6-22.6c5.5,0,10.9,2,15,5.7c0.4,0.4,0.5,1.1,0.1,1.5c-0.4,0.4-1.1,0.5-1.5,0.1l0,0
			c-3.7-3.3-8.6-5.1-13.6-5.1c-11.3,0-20.4,9.2-20.4,20.4s9.2,20.4,20.4,20.4c5,0,9.8-1.8,13.6-5.1c0.4-0.4,1.1-0.4,1.5,0.1
			c0.4,0.4,0.4,1.1-0.1,1.5l0,0C156.5,157,151.1,159,145.6,159 M242.8,159c-0.4,0-0.7-0.2-0.9-0.5l-24.2-39.8v39.2
			c0,0.6-0.5,1.1-1.1,1c-0.6,0-1-0.5-1-1v-43c0-0.6,0.5-1.1,1.1-1.1c0.4,0,0.7,0.2,0.9,0.5l24.2,39.8v-37.4c0-0.6,0.5-1.1,1.1-1
			c0.6,0,1,0.5,1,1v41.3C243.9,158.5,243.4,159,242.8,159C242.8,159,242.8,159,242.8,159"/>
		<path class="st9" d="M339,168.7H118.8c-0.6,0-1.1-0.5-1-1.1c0-0.6,0.5-1,1-1h219.1v-57.1H114.6v58.1c0,0.6-0.5,1.1-1.1,1.1
			s-1.1-0.5-1.1-1.1v-59.2c0-0.6,0.5-1.1,1.1-1.1H339c0.6,0,1.1,0.5,1.1,1.1v59.2C340,168.2,339.5,168.7,339,168.7"/>
	</g>
</g>
</svg>
