<svg xmlns="http://www.w3.org/2000/svg" viewBox="0 0 238 76.8" style="enable-background:new 0 0 238 76.8" xml:space="preserve"><path d="M143.1 40.7c-8.7.3-14.1 1.9-14.1 7.6 0 3.7 3 7.7 10.5 7.7 10.1 0 15.4-5.5 15.4-14.5v-1c-3.5.1-7.9.1-11.8.2zm21.4 11.9c0 2.8.1 5.5.3 8h-8.9c-.2-2-.3-4.1-.3-6-4.8 5.9-10.6 7.6-18.5 7.6-11.8 0-18.1-6.2-18.1-13.5 0-10.5 8.6-14.1 23.5-14.5 4.1-.1 8.7-.1 12.5-.1v-1c0-7-4.5-9.9-12.3-9.9-5.8 0-10 2.4-10.5 6.5h-10.1c1.1-10.3 11.9-12.9 21.4-12.9 11.4 0 21 4.1 21 16.1v19.7z" style="fill:#f5af02"/><path d="M60.1 35.6c-.4-9-6.8-12.3-13.8-12.3-7.5 0-13.4 3.8-14.5 12.3h28.3zM31.7 42c.5 8.7 6.5 13.9 14.8 13.9 5.7 0 10.8-2.3 12.5-7.4h9.9C67 58.8 56 62.3 46.6 62.3c-17.1 0-24.7-9.4-24.7-22.1 0-14 7.8-23.2 24.8-23.2 13.5 0 23.5 7.1 23.5 22.5V42H31.7z" style="fill:#e53238"/><path d="M94.8 55.7c8.9 0 15-6.4 15-16.1s-6.1-16.1-15-16.1-15 6.4-15 16.1 6.1 16.1 15 16.1zM70.2 0h9.6v24.1c4.7-5.6 11.2-7.2 17.6-7.2 10.7 0 22.6 7.2 22.6 22.8 0 13-9.4 22.5-22.7 22.5-7 0-13.5-2.5-17.6-7.4 0 2-.1 4-.3 5.9H70c.2-3 .3-6.8.3-9.9V0h-.1z" style="fill:#0064d2"/><path d="m213.3 18.5-29.7 58.3h-10.7l8.5-16.2-22.3-42.1h11.2l16.4 32.9 16.4-32.9h10.2z" style="fill:#86b817"/><g><path d="M218.4 18.1v.7h.6v.2h-.6v1.7c0 .2 0 .3.1.4.1.1.1.1.3.1H219.1v.2h-.4c-.2 0-.3-.1-.4-.2s-.2-.3-.2-.6V19h-.5v-.2h.5v-.7h.3zM219.9 18.8v.4c.1-.2.2-.3.3-.4s.3-.1.5-.1.4 0 .5.1.2.2.3.4c.1-.2.2-.3.3-.4.1-.1.3-.2.5-.2.3 0 .5.1.7.3.2.2.2.5.2.9v1.5h-.2v-1.5c0-.3-.1-.6-.2-.7-.1-.1-.3-.2-.5-.2s-.4.1-.5.2c-.1.1-.2.3-.2.5v1.6h-.3v-1.5c0-.3-.1-.5-.2-.7-.1-.1-.3-.2-.5-.2s-.4.1-.5.2c-.1.1-.2.2-.3.4v1.9h-.3v-2.6h.4z"/></g></svg>