<svg version="1.1" id="Layer_1" xmlns="http://www.w3.org/2000/svg" x="0" y="0" viewBox="0 0 500 158" style="enable-background:new 0 0 500 158" xml:space="preserve"><style>.st0{fill:#323d45}.st1{fill:#ec4444}</style><path class="st0" d="M169.1 15.5c3-1.1 6.2-1.8 9.3-2.1 3.3-.4 6.7-.6 10-.3 9.1.6 17.3 3.8 24.4 9.4 1.6 1.2 3.1 2.6 4.5 4 .8.8 1.5 1.7 2.1 2.8.4-.2.2-.6.2-.8.1-2.2-.1-4.3.1-6.5.5-5 4.9-8.9 9.8-9.1 5.3-.2 9.7 3.6 10.6 8.5.1.8.2 1.5.2 2.3v25.9c.5-.4.8-.7 1.1-1C253.3 37.8 265 26.9 276.7 16c1.6-1.5 3.3-2.5 5.4-2.9 4.3-.9 8.7 1.1 11 4.9 2.2 3.8 1.8 8.6-1 11.9-.4.5-.8.9-1.3 1.3-6.8 6.3-13.5 12.6-20.3 18.9-.3.3-.6.5-.8.9 8.8 11.2 17.7 22.4 26.5 33.7h.2V41.9c0-1.2 0-2.5.4-3.7 1.6-5.2 6.7-8.3 12.1-7.2.2 0 .4.2.7 0-.1-.4-.4-.5-.7-.8-2.9-3.3-3.7-7.1-2-11.2 1.7-4 4.9-6.2 9.3-6.2 7.3-.1 14.6-.2 21.9 0 8.6.2 16.4 2.9 23 8.4 5.7 4.8 9.5 10.8 11.9 17.9.3.9.6 1.9.9 2.8h.2V23c0-4.6 3.1-8.6 7.5-9.9.9-.3 1.8-.4 2.7-.4 13 0 26.1-.1 39.1 0 7.5.1 14.3 2.4 20 7.5 5.2 4.7 8.2 10.7 8.9 17.7.8 7.2-.8 13.8-5 19.7-.3.5-.4.8 0 1.3 4.1 5.5 5.7 11.8 5.1 18.6-1.1 12.3-9.8 23.7-23.6 26.5-2 .4-4.1.6-6.2.6h-38.2c-4.7 0-8.8-3.1-10.1-7.5-.3-1-.4-2-.4-3.1V75.4c-.4.4-.4.8-.5 1.1-1.7 5.8-4.4 11-8.3 15.6-5.6 6.4-12.6 10.2-20.8 11.8-2.9.5-5.7.8-8.6.8h-28.6c-3.2 0-5.9-.9-8.1-3.3-.4-.5-.6-.3-1 .1-2.2 2.3-4.9 3.3-8 3.2-3.2-.2-5.7-1.5-7.6-4-3.7-4.7-7.4-9.5-11.2-14.2-5.4-6.9-10.9-13.8-16.3-20.7-.2-.2-.4-.5-.6-.7-.4.1-.7.4-.9.7-4 3.8-8.1 7.5-12.1 11.3-.6.5-.8 1.1-.8 1.9v15.4c0 5-3.3 9.1-8.2 10.2-5.9 1.3-11.8-2.9-12.4-8.9-.2-2-.1-4-.1-6v-1c-.4 0-.5.3-.6.5-.4.7-.9 1.3-1.5 1.9-6.8 7-15 11.5-24.7 13.2-4.2.7-8.5.7-12.8.4-2.6-.2-5.1-.6-7.6-1.2-.3-.1-.6-.2-.9 0-.3-.3-.8-.3-1.2-.4-4.8-1.4-9.3-3.5-13.4-6.5-1.5-1.1-2.8-2.3-4.1-3.5-.1-.3-.4-.5-.6-.7-2.2-2.3-4.1-4.8-5.7-7.6-3.8-6.5-5.6-13.6-6.1-21.1-.4-6.4 0-12.7 1.6-18.9.9-3.4 2.2-6.6 3.8-9.8.3-.3.8-.4 1.2-.5 1.7-.5 3.4-.7 5.1-.8 4.2-.2 8.2.7 11.8 2.9 1.4.9 2.9 1.8 3.9 3.2-2 1.8-3.4 4-4.5 6.5-1.2 2.9-1.9 5.9-2.1 8.9-.4 4.6-.2 9.2 1 13.7.8 2.8 1.9 5.5 3.9 7.8 1.4 2 3.3 3.5 5.4 4.6 4.6 2.5 9.5 3.2 14.6 3 1.6 0 3.2-.2 4.7-.6 4.8-1.1 8.7-3.5 12.1-7 4.8-4.9 12.5-4.1 16.3 1.7.1.2.1.5.5.5V39.1c-.4.2-.4.5-.6.8-3.6 5.5-11.2 6.3-15.9 1.8-.3-.3-.6-.7-1-1-3.5-3.4-7.6-5.6-12.4-6.5-1.8-3.2-3.9-6.2-6.5-8.8-3.8-3.9-8.2-7-13.2-9.2-.5-.3-.9-.3-1.2-.7zm144.4 17.7c.1.2.1.3.2.4 2.4 2.3 3.3 5.1 3.3 8.4-.1 13.6 0 27.2 0 40.9v.9c0 .3.1.4.4.4h18c1.3 0 2.6 0 3.9-.2 5.6-.8 9.9-3.5 12.6-8.5 1.2-2.3 2-4.7 2.5-7.3 1.1-5.7 1.1-11.5.2-17.3-.5-3.3-1.5-6.5-3.2-9.3-2.1-3.4-5-5.9-8.8-7.1-2.1-.7-4.3-1-6.5-1H320c-2.1 0-4.3.2-6.5-.3zm81.3 25.6v24.9c0 .3.1.5.5.5H412.9c2.4 0 4.8-.1 7.1-.5 4.3-.7 7.6-2.7 9.6-6.6 1.5-2.8 1.8-5.9 1.4-9-.6-3.8-2.7-6.5-6-8.3-.1-.1-.3-.1-.4-.2-1-.5-1-1-.1-1.6.3-.2.7-.4 1-.6 2.5-1.8 4.1-4.1 4.8-7.1.4-1.8.5-3.7.2-5.5-.7-4.3-3.5-9-9.2-10.5-2.7-.7-5.5-.8-8.3-.8h-16.9c-1.4 0-1.2-.1-1.2 1.3-.1 8-.1 16-.1 24z"/><path class="st1" d="M169.1 15.5c.2.3.6.4 1 .6 5 2.2 9.4 5.3 13.2 9.2 2.6 2.6 4.7 5.6 6.5 8.8l.3.6c4.9 9.5 5.9 19.6 3.8 30-1.4 6.5-4 12.5-7.2 18.3-.2.4-.5.7-.5 1.1-5.1.2-10-.5-14.6-3-2.1-1.1-4-2.6-5.4-4.6 2.5-3.8 4.7-7.9 6.2-12.3 1.7-4.9 2.2-9.8 1.1-14.9-.8-3.8-2.6-7.1-5.4-9.7-1.1-1.4-2.5-2.3-3.9-3.2-3.6-2.2-7.6-3.1-11.8-2.9-1.7.1-3.4.3-5.1.8-.4.1-.8.2-1.2.5-.5 0-.9.2-1.3.4-4.3 1.7-7.9 4.4-11 7.7-5 5.3-8.4 11.6-11.1 18.3-.1.3-.2.6-.5.9-.1-.2-.2-.4-.3-.7-1.2-3.2-2.7-6.3-4.4-9.3-2.8-4.9-6.2-9.4-10.7-12.9-5.7-4.5-12.2-6.7-19.4-5.4-7.3 1.3-12.5 5.5-15.4 12.3-2 4.7-2 9.7-.8 14.6 1.1 4.7 3.2 9.1 5.7 13.2 4.3 7.2 9.7 13.6 15.5 19.6 8.7 9 18.2 16.9 28.2 24.3.5.3.9.7 1.4 1 .2.2.5.2.7 0 .2-.2.4-.3.7-.5 7.9-5.7 15.4-11.8 22.5-18.5 2.5-2.3 4.8-4.7 7.3-7.1 1.4 1.2 2.7 2.4 4.1 3.5 4.1 3 8.6 5.1 13.4 6.5.4.1.8.2 1.2.4-1.3 1.7-2.8 3.2-4.3 4.7-7.4 7.7-15.4 14.7-23.8 21.3-5 3.9-10.2 7.7-15.5 11.3-2.9 1.9-6.1 2.3-9.4 1.2-1.1-.3-2-.9-3-1.6-8.2-5.5-15.9-11.4-23.4-17.8-7.3-6.2-14.3-12.8-20.7-20.1-6-6.8-11.3-14-15.5-22-2.7-5.3-4.9-10.8-6-16.7-2.2-11.8-.5-23 6.4-33.1 6.3-9.1 15.3-15 26.7-17 14.8-2.5 27.5 1.9 37.9 12.7.2.2.4.6.8.7 1.5-1.6 3-3.1 4.6-4.5 6.1-5 13-8.1 20.8-9.2 6.9-1 13.7-.2 20.3 2.1.4.2.8.5 1.3.4z"/><path class="st0" d="M307.2 124.1c3.1-3.8 10-3 12.5 1.6 1.3 2.5 1.7 5.2 1.4 8-.2 1.5-.5 2.9-1.2 4.2-1.8 3.5-5.7 5.2-9.5 4.2-1.5-.4-2.3-1.1-3.5-2.7-.3.2-.2.5-.2.7-.2 1.5-.9 2.3-2.4 2.3-1.3 0-2.4-1-2.6-2.3V117.2c0-2.4 2-3.1 3.7-2.7.9.2 1.4.8 1.7 1.7.1.5.1 1 .1 1.5v6.4zm8.4 7.9c0-1.2-.2-2.4-.6-3.5-.7-1.6-1.9-2.5-3.6-2.5-1.8 0-3.1.8-3.8 2.5-.9 2.3-.9 4.6-.1 6.9.6 1.7 1.9 2.6 3.7 2.6 1.8 0 3-.9 3.7-2.4.5-1.1.7-2.3.7-3.6zM376.2 124.5c2.3-2.5 4.8-3.2 7.8-2.6 3.1.6 5 2.7 5.2 5.9.1 1.5.1 3 .1 4.5v7.2c0 2.3-1.6 3.4-3.8 2.8-.9-.3-1.5-.9-1.6-1.8-.1-.5-.1-.9-.1-1.4v-8.2c0-.5 0-.9-.1-1.4-.3-2.6-2.4-3.9-4.8-2.9-1.8.7-2.7 2.1-2.7 4v8c0 .6 0 1.2-.1 1.8-.2 1.1-.8 1.7-1.9 1.9-.5.1-1.1.1-1.6 0-1-.2-1.7-.9-1.8-2-.1-.4 0-.8 0-1.3v-22c.1-2.3 2.2-3.5 4.2-2.4.6.3 1 .8 1.2 1.5.1.5.1 1 .1 1.5v5.8c-.2.3-.1.5-.1 1.1zM398.3 133.1c-.1 2.6 1.7 4.7 4.4 4.9 1.8.1 3.4-.2 4.7-1.5.3-.3.6-.5.9-.7.9-.6 2-.6 2.8.1.8.7 1 1.7.6 2.7-.3.8-.9 1.4-1.6 1.9-1.7 1.1-3.6 1.6-5.5 1.8-1.8.2-3.5 0-5.3-.5-3.6-1.2-5.7-3.8-6.4-7.5-.4-2.3-.2-4.6.7-6.7 1.6-3.7 4.5-5.5 8.4-5.8 2-.2 3.9.1 5.8.9 3.3 1.5 5.4 4.7 5.3 8.3 0 1.6-.6 2.1-2.2 2.2h-11.3c-.5-.1-.9-.2-1.3-.1zm9.5-3.3c-.2-2.5-2.1-4.3-4.6-4.2-2.6 0-4.6 1.9-4.7 4.2h9.3zM323.8 132.3c0-1.4.1-2.5.4-3.6 1.1-4.1 4.4-6.7 8.7-6.9 1.4-.1 2.7 0 4 .3 4 1 6.7 4.1 7.1 8.3.1 1.4.1 2.8-.1 4.3-.9 4.6-3.8 7.2-8.4 7.7-1.5.1-3 .1-4.5-.2-3.7-.8-6-3.2-6.8-6.9-.3-1.1-.4-2.2-.4-3zm14.8-.3c-.1-1.3-.2-2.5-.7-3.7-.8-1.6-2-2.5-3.8-2.5-1.8 0-3.2.8-4 2.4-1.1 2.5-1.1 5.1 0 7.6.7 1.6 2.1 2.4 3.9 2.4 1.8 0 3.1-.9 3.9-2.5.5-1.1.7-2.4.7-3.7zM352.7 125c.4-.4.6-.7.9-.9 2.5-2.5 5.5-3 8.7-1.9 2.7 1 3.8 3.2 3.9 6 .1 1.8 0 3.5 0 5.3v6c0 2.3-2.3 3.6-4.3 2.4-.5-.3-.8-.7-1-1.2-.2-.5-.2-1.1-.2-1.6v-9.4c-.1-2.8-2.4-4.2-5-3.1-1.8.8-2.6 2.3-2.7 4.2v9.4c-.1 1.2-.8 2-2.1 2.1-.6.1-1.2.1-1.7-.1-.9-.3-1.4-.9-1.6-1.8-.1-.5-.1-.9-.1-1.4v-15c.1-1.5 1-2.2 2.4-2.3 1.5 0 2.3.7 2.5 2.2.2.3.2.6.3 1.1zM430.2 139c-.3.4-.5.6-.7.8-2.4 2.5-5.3 3.1-8.5 2.1-2.5-.7-3.8-2.6-4.2-5.2-.1-.7-.1-1.4-.1-2.1v-10.2c.1-2.2 1.5-3.3 3.7-2.7 1 .3 1.7.9 1.8 2V133.5c0 .4 0 .9.1 1.3.4 2.5 2.5 3.7 4.9 2.7 1.7-.7 2.6-2.1 2.7-4V124.1c.1-1.6 1-2.4 2.6-2.5 1.9 0 2.9.8 2.9 2.8v15c0 .4 0 .8-.2 1.3-.4 1.1-1.2 1.6-2.5 1.5-1.1-.1-1.9-.7-2.1-1.8-.3-.3-.3-.8-.4-1.4zM445.1 125.6c.3-.6.6-1.2.9-1.7.9-1.5 2.2-2.4 4-2.2 1.7.2 2.7 1.5 2.5 3.2-.2 1.2-1 2-2.2 2.1-.5 0-1.1 0-1.6.1-1.3.1-2.2.8-2.7 2-.4 1-.5 2-.5 3.1v7.5c-.1 1.7-1 2.6-2.7 2.6-1.8 0-2.8-.9-2.8-2.7v-15.4c0-1.9 1.4-3 3.2-2.5 1 .2 1.6 1 1.8 2 0 .3 0 .6.1.9-.2.4-.3.7 0 1zM177.6 129.1c.1 2.5.6 4.9 1.9 7.1 2.7 4.5 7.8 5.6 11.2 4.5 3.5-1.1 5.5-3.7 6.4-7.1.1-.4.1-.8.3-1.1.1-.4.4-.6.8-.5.4.1.6.3.6.7v.3c-.6 3.8-3.4 8.3-8.7 9.2-5.3.9-10.8-1.5-13-7.5-1.4-3.9-1.4-7.8.1-11.6 2.3-5.8 7.5-7.9 12.6-7.3 4 .5 6.8 2.5 8.3 6.3.1.3.2.6.2.9 0 .4-.1.7-.5.8-.4.1-.7 0-.9-.4-.1-.2-.1-.4-.2-.5-1-3.1-3.3-4.9-6.4-5.5-5.7-1.1-10.6 2.1-12.1 7.9-.1.5-.2 1.1-.3 1.6-.2.7-.4 1.4-.3 2.2zM275.5 138.3c-.6.3-.7.6-.9.9-2.7 4.2-10.7 4.4-13.2-1.3-1.4-3.4-1.5-6.9 0-10.3 1.8-4.3 7.3-5.9 11.2-3.3.3.2.5.4.7.6.2.2.3.5.1.7-.2.2-.4.3-.7.2-.2-.1-.5-.3-.7-.4-3.4-2.2-7.8-.9-9.4 2.8-1.3 3-1.3 6 0 9 1.1 2.6 3.1 4 5.9 4 2.8 0 4.7-1.4 5.9-3.9.7-1.5 1-3.1 1-4.7V117c0-.3.2-.5.5-.5.4 0 .6.1.7.4.1.3.1.5.1.8v22.9c0 .9-.2 1.2-.7 1.3-.5 0-.7-.3-.7-1.3.2-.8.2-1.5.2-2.3zM211 132.8h-6.2c-.8 0-.9.1-.8.9 0 1.5.4 2.9 1.2 4.2 1.3 2.3 3.4 3.3 6 3.2 2.7-.2 4.7-1.5 5.8-4.1.1-.3.2-.7.4-1 .2-.3.4-.4.8-.3.3.1.4.3.4.6s-.1.5-.2.8c-1 3.1-3.5 5-6.9 5.1-4.6.2-7.9-2.6-8.6-7.3-.3-2.2-.2-4.5.6-6.6 1.6-4.4 5.4-6.1 9.8-5 2.1.5 3.5 1.8 4.5 3.7.7 1.4 1 2.8 1.1 4.3.1 1-.3 1.4-1.3 1.4-2.4.1-4.5.1-6.6.1zm-.5-1.1h6c.7 0 .8-.2.7-.8-.1-1.4-.6-2.6-1.3-3.8-1.6-2.3-4.3-3.3-7-2.6-2.6.7-4.9 3.8-5 6.5 0 .6.3.7.8.7 1.9-.1 3.9 0 5.8 0zM249 132.8h-6.1c-1 0-1 0-1 1.1.1 1.3.4 2.6 1 3.8 1.3 2.4 3.4 3.6 6.1 3.4 2.8-.1 4.8-1.5 5.8-4.2.1-.2.1-.4.2-.7.2-.4.4-.7.9-.5.5.2.5.6.4 1 0 .1 0 .1-.1.2-.8 2.5-2.4 4.3-5 5-1.6.5-3.3.5-4.9.1-2.3-.6-3.9-2-4.9-4.1-1.6-3.8-1.5-7.6.5-11.1 1.7-2.9 4.4-4 7.7-3.6 3 .3 5.1 2 6.3 4.8.5 1.1.6 2.3.7 3.5.1 1-.3 1.4-1.3 1.4-2.1-.1-4.2-.1-6.3-.1zm-.5-1.1h5.9c.8 0 .9-.1.8-.9-.2-1.6-.7-3.1-1.8-4.3-2.3-2.8-6.6-3-9.1-.4-1.3 1.3-2 2.9-2.3 4.7-.2.8-.1.9.8.9h5.7zM224.8 132.9c.7-.2 1-.6 1.3-.9 3-2.6 6.1-5.2 9.1-7.8.3-.2.5-.5.8-.6.2-.1.5-.1.7.1.2.2.2.5 0 .7l-.6.6c-1.7 1.5-3.5 3-5.2 4.4-1.1.9-1.1.7-.2 1.9 2.2 2.9 4.3 5.8 6.5 8.7.2.2.4.5.5.8.2.4 0 .7-.3.9-.3.2-.6.1-.8-.1-.2-.3-.4-.5-.7-.8-2.2-2.9-4.3-5.7-6.5-8.6-.6-.8-.6-.8-1.4-.2-.9.7-1.8 1.5-2.7 2.2-.5.4-.8.9-.7 1.6V140.7c0 .8-.3 1.1-.7 1.1-.4 0-.7-.3-.7-1.1v-23.6c0-.4.2-.7.6-.7.5 0 .7.3.7.7v14.6c.3.3.3.7.3 1.2zM295.7 138.7c-2.1 2.9-4.8 4-8.2 3.4-2.9-.4-4.5-2.2-4.8-5.1-.1-.7-.1-1.5-.1-2.2v-10c0-.3 0-.6.1-.9.1-.4.3-.5.7-.5.3 0 .5.2.6.5v10.9c0 1 .1 1.9.3 2.9.5 1.8 1.7 2.9 3.6 3.2 4.1.7 7.4-1.8 7.8-6 .1-.7.1-1.4.1-2.1V124.5c0-.7.2-1 .7-1 .6 0 .7.5.7 1v16.7c0 .4-.3.6-.6.6-.4 0-.6-.2-.7-.6v-.9c-.2-.6-.2-1.1-.2-1.6zM214.3 117c0 .3-.3.5-.6.7-1.9.8-3.8 1.7-5.7 2.5-.4.2-.9.2-1.1-.3-.2-.5.1-.8.5-1 1.9-.8 3.7-1.7 5.6-2.4.8-.3 1.3 0 1.3.5z"/><path class="st1" d="M87 43.6c2.8 0 4.7.7 6.3 2.3.9.9.8.8 1.6 0 3-2.7 7.3-3.1 10.6-.9 4.2 2.8 5.1 8.5 2 12.4-.2.2-.3.4-.5.6-.8.8-.7.7 0 1.4 1 1 1.7 2.3 2.1 3.7 1 3.7-.5 7.5-3.8 9.5-3.2 2-7.3 1.6-10.1-.9-.1-.1-.2-.2-.3-.2-.7-.7-.7-.7-1.4 0-4 3.7-10.1 3-13.1-1.5-2-3-1.8-7 .4-9.9.3-.3.5-.7.8-1 .3-.3.5-.6 0-.9l-.4-.4c-2.3-2.8-2.9-5.8-1.5-9.2 1.3-3 4.4-5 7.3-5z"/></svg>